<?xml version="1.0" encoding="UTF-8" standalone="no"?>
<!DOCTYPE svg PUBLIC "-//W3C//DTD SVG 1.1//EN" "http://www.w3.org/Graphics/SVG/1.1/DTD/svg11.dtd">
<svg width="100%" height="100%" viewBox="0 0 48 48" version="1.1" xmlns="http://www.w3.org/2000/svg" xmlns:xlink="http://www.w3.org/1999/xlink" xml:space="preserve" xmlns:serif="http://www.serif.com/" style="fill-rule:evenodd;clip-rule:evenodd;stroke-linejoin:round;stroke-miterlimit:2;">
    <g id="surface1">
        <path d="M6,10C4.895,10 4,10.895 4,12C4,13.105 4.895,14 6,14C12.828,14 35.172,14 42,14C43.105,14 44,13.105 44,12C44,10.895 43.105,10 42,10C35.172,10 12.828,10 6,10ZM6,22C4.895,22 4,22.895 4,24C4,25.105 4.895,26 6,26C12.828,26 35.172,26 42,26C43.105,26 44,25.105 44,24C44,22.895 43.105,22 42,22C35.172,22 12.828,22 6,22ZM6,34C4.895,34 4,34.895 4,36C4,37.105 4.895,38 6,38C12.828,38 35.172,38 42,38C43.105,38 44,37.105 44,36C44,34.895 43.105,34 42,34C35.172,34 12.828,34 6,34Z" style="fill:#003e50;fill-rule:nonzero;"/>
    </g>
</svg>
