<?xml version="1.0" encoding="UTF-8"?>
<svg xmlns="http://www.w3.org/2000/svg" xmlns:xlink="http://www.w3.org/1999/xlink" width="20pt" height="20pt" viewBox="0 0 20 20" version="1.1">
<g id="surface1">
<path style=" stroke:none;fill-rule:nonzero;fill:#FFFFFF;fill-opacity:1;" d="M 20.023438 4.175781 C 19.285156 4.503906 18.492188 4.722656 17.660156 4.824219 C 18.511719 4.3125 19.164063 3.507813 19.46875 2.546875 C 18.675781 3.019531 17.792969 3.359375 16.859375 3.546875 C 16.109375 2.746094 15.039063 2.246094 13.855469 2.246094 C 11.585938 2.246094 9.742188 4.089844 9.742188 6.359375 C 9.742188 6.679688 9.78125 6.996094 9.851563 7.296875 C 6.433594 7.125 3.402344 5.488281 1.371094 3 C 1.019531 3.609375 0.816406 4.3125 0.816406 5.066406 C 0.816406 6.496094 1.539063 7.753906 2.644531 8.492188 C 1.96875 8.46875 1.335938 8.285156 0.78125 7.976563 C 0.78125 7.992188 0.78125 8.011719 0.78125 8.027344 C 0.78125 10.023438 2.199219 11.683594 4.078125 12.0625 C 3.734375 12.15625 3.371094 12.207031 2.996094 12.207031 C 2.730469 12.207031 2.472656 12.179688 2.222656 12.132813 C 2.746094 13.765625 4.265625 14.957031 6.066406 14.988281 C 4.65625 16.09375 2.882813 16.75 0.957031 16.75 C 0.625 16.75 0.296875 16.730469 -0.0234375 16.691406 C 1.796875 17.859375 3.957031 18.539063 6.28125 18.539063 C 13.847656 18.539063 17.984375 12.273438 17.984375 6.839844 C 17.984375 6.660156 17.980469 6.480469 17.972656 6.304688 C 18.777344 5.726563 19.472656 5 20.023438 4.175781 Z "/>
</g>
</svg>
