<?xml version="1.0" encoding="UTF-8"?>
<svg xmlns="http://www.w3.org/2000/svg" xmlns:xlink="http://www.w3.org/1999/xlink" width="100pt" height="100pt" viewBox="0 0 100 100" version="1.1">
<g id="surface1">
<path style=" stroke:none;fill-rule:nonzero;fill:#0093A6;fill-opacity:1;" d="M 42 4 C 33.1875 4 26 11.1875 26 20 C 26 25.90625 29.21875 31.046875 34 33.8125 L 34 64.6875 L 23.6875 54.3125 C 20.578125 51.203125 15.484375 51.203125 12.375 54.3125 C 9.265625 57.421875 9.265625 62.515625 12.375 65.625 L 35.0625 88.375 C 39.9375 93.25 46.542969 95.996094 53.4375 96 L 68 96 C 77.917969 96 86 87.917969 86 78 L 86 52 C 86 47.605469 82.394531 44 78 44 C 76.335938 44 74.785156 44.492188 73.5 45.375 C 72.40625 42.257813 69.476563 40 66 40 C 64.023438 40 62.277344 40.796875 60.875 42 C 59.480469 39.628906 56.929688 38 54 38 C 52.535156 38 51.183594 38.429688 50 39.125 L 50 33.8125 C 54.78125 31.046875 58 25.90625 58 20 C 58 11.1875 50.8125 4 42 4 Z M 42 8 C 48.652344 8 54 13.347656 54 20 C 54 23.566406 52.464844 26.75 50 28.9375 L 50 20 C 50 15.605469 46.394531 12 42 12 C 37.605469 12 34 15.605469 34 20 L 34 28.9375 C 31.535156 26.753906 30 23.566406 30 20 C 30 13.347656 35.347656 8 42 8 Z M 42 16 C 44.234375 16 46 17.765625 46 20 L 46 32.375 C 45.96875 32.582031 45.96875 32.792969 46 33 L 46 50 C 45.984375 50.617188 46.253906 51.203125 46.730469 51.59375 C 47.207031 51.984375 47.835938 52.136719 48.4375 52 C 48.636719 51.945313 48.828125 51.863281 49 51.75 C 49.042969 51.730469 49.085938 51.710938 49.125 51.6875 C 49.242188 51.59375 49.34375 51.492188 49.4375 51.375 C 49.792969 51.007813 49.996094 50.511719 50 50 L 50 46 C 50 43.765625 51.765625 42 54 42 C 56.234375 42 58 43.765625 58 46 L 58 50 C 58.007813 50.125 58.03125 50.253906 58.0625 50.375 C 58.097656 50.570313 58.160156 50.761719 58.25 50.9375 C 58.328125 51.117188 58.433594 51.289063 58.5625 51.4375 C 58.65625 51.53125 58.761719 51.613281 58.875 51.6875 C 58.933594 51.734375 58.996094 51.773438 59.0625 51.8125 C 59.238281 51.902344 59.429688 51.964844 59.625 52 C 59.894531 52.054688 60.167969 52.054688 60.4375 52 C 60.636719 51.945313 60.828125 51.863281 61 51.75 C 61.042969 51.730469 61.085938 51.710938 61.125 51.6875 C 61.242188 51.59375 61.34375 51.492188 61.4375 51.375 C 61.792969 51.007813 61.996094 50.511719 62 50 L 62 48 C 62 45.765625 63.765625 44 66 44 C 68.234375 44 70 45.765625 70 48 L 70 52 C 69.996094 52.0625 69.996094 52.125 70 52.1875 L 70 54 C 69.988281 54.722656 70.367188 55.390625 70.992188 55.753906 C 71.613281 56.121094 72.386719 56.121094 73.007813 55.753906 C 73.632813 55.390625 74.011719 54.722656 74 54 L 74 52.3125 C 74.007813 52.207031 74.007813 52.105469 74 52 C 74 49.765625 75.765625 48 78 48 C 80.234375 48 82 49.765625 82 52 L 82 78 C 82 85.753906 75.753906 92 68 92 L 53.4375 92 C 47.601563 92 42 89.6875 37.875 85.5625 L 15.1875 62.8125 C 13.605469 61.230469 13.605469 58.769531 15.1875 57.1875 C 16.769531 55.605469 19.230469 55.605469 20.8125 57.1875 L 34.3125 70.625 C 34.386719 70.738281 34.46875 70.84375 34.5625 70.9375 C 34.601563 70.980469 34.644531 71.023438 34.6875 71.0625 C 34.957031 71.289063 35.28125 71.4375 35.625 71.5 C 35.894531 71.554688 36.167969 71.554688 36.4375 71.5 C 36.566406 71.472656 36.691406 71.429688 36.8125 71.375 C 36.878906 71.335938 36.941406 71.296875 37 71.25 C 37.570313 70.925781 37.941406 70.339844 38 69.6875 C 38 69.667969 38 69.644531 38 69.625 C 38 69.582031 38 69.542969 38 69.5 C 38.003906 69.417969 38.003906 69.332031 38 69.25 L 38 32.875 C 38.03125 32.667969 38.03125 32.457031 38 32.25 L 38 20 C 38 17.765625 39.765625 16 42 16 Z "/>
</g>
</svg>
