<?xml version="1.0" encoding="UTF-8"?>
<svg xmlns="http://www.w3.org/2000/svg" xmlns:xlink="http://www.w3.org/1999/xlink" width="100pt" height="100pt" viewBox="0 0 100 100" version="1.1">
<g id="surface1">
<path style=" stroke:none;fill-rule:nonzero;fill:#3FF390;fill-opacity:1;" d="M 5.625 8 C 4.667969 8.183594 3.984375 9.027344 4 10 L 4 30 C 4 31.105469 4.894531 32 6 32 L 94 32 C 95.105469 32 96 31.105469 96 30 L 96 10 C 96 8.894531 95.105469 8 94 8 L 6 8 C 5.9375 7.996094 5.875 7.996094 5.8125 8 C 5.75 7.996094 5.6875 7.996094 5.625 8 Z M 8 12 L 92 12 L 92 28 L 8 28 Z M 16 18 C 14.894531 18 14 18.894531 14 20 C 14 21.105469 14.894531 22 16 22 C 17.105469 22 18 21.105469 18 20 C 18 18.894531 17.105469 18 16 18 Z M 24 18 C 22.894531 18 22 18.894531 22 20 C 22 21.105469 22.894531 22 24 22 C 25.105469 22 26 21.105469 26 20 C 26 18.894531 25.105469 18 24 18 Z M 32 18 C 30.894531 18 30 18.894531 30 20 C 30 21.105469 30.894531 22 32 22 C 33.105469 22 34 21.105469 34 20 C 34 18.894531 33.105469 18 32 18 Z M 4 38 L 4 90 C 4 91.105469 4.894531 92 6 92 L 94 92 C 95.105469 92 96 91.105469 96 90 L 96 38 L 92 38 L 92 88 L 8 88 L 8 38 Z M 15.625 38 C 14.667969 38.183594 13.984375 39.027344 14 40 L 14 80 C 14 81.105469 14.894531 82 16 82 L 46 82 C 47.105469 82 48 81.105469 48 80 L 48 40 C 48 38.894531 47.105469 38 46 38 L 16 38 C 15.9375 37.996094 15.875 37.996094 15.8125 38 C 15.75 37.996094 15.6875 37.996094 15.625 38 Z M 54 38 L 54 42 L 86 42 L 86 38 Z M 18 42 L 44 42 L 44 78 L 18 78 Z M 54 48 L 54 52 L 86 52 L 86 48 Z M 54 58 L 54 62 L 86 62 L 86 58 Z M 54 68 L 54 72 L 86 72 L 86 68 Z M 54 78 L 54 82 L 86 82 L 86 78 Z "/>
</g>
</svg>
