<?xml version="1.0" encoding="UTF-8"?>
<svg xmlns="http://www.w3.org/2000/svg" xmlns:xlink="http://www.w3.org/1999/xlink" width="20pt" height="20pt" viewBox="0 0 20 20" version="1.1">
<g id="surface1">
<path style=" stroke:none;fill-rule:nonzero;fill:#FFFFFF;fill-opacity:1;" d="M 10 0.800781 C 8.15625 0.800781 6.679688 1.828125 6.4375 3.199219 L 1.199219 3.199219 C 0.539063 3.199219 0 3.738281 0 4.398438 L 0 11.199219 C 0 11.421875 0.179688 11.601563 0.398438 11.601563 L 8 11.601563 C 8 10.9375 8.539063 10.398438 9.199219 10.398438 L 10.800781 10.398438 C 11.460938 10.398438 12 10.9375 12 11.601563 L 19.601563 11.601563 C 19.820313 11.601563 20 11.421875 20 11.199219 L 20 4.398438 C 20 3.738281 19.460938 3.199219 18.800781 3.199219 L 13.5625 3.199219 C 13.320313 1.828125 11.84375 0.800781 10 0.800781 Z M 10 1.601563 C 11.378906 1.601563 12.5 2.273438 12.75 3.199219 L 7.25 3.199219 C 7.5 2.273438 8.621094 1.601563 10 1.601563 Z M 9.199219 11.199219 C 8.980469 11.199219 8.800781 11.378906 8.800781 11.601563 L 8.800781 12.398438 C 8.800781 12.621094 8.980469 12.800781 9.199219 12.800781 L 10.800781 12.800781 C 11.019531 12.800781 11.199219 12.621094 11.199219 12.398438 L 11.199219 11.601563 C 11.199219 11.378906 11.019531 11.199219 10.800781 11.199219 Z M 0 12.324219 L 0 18 C 0 18.660156 0.539063 19.199219 1.199219 19.199219 L 18.800781 19.199219 C 19.460938 19.199219 20 18.660156 20 18 L 20 12.324219 C 19.875 12.371094 19.742188 12.398438 19.601563 12.398438 L 12 12.398438 C 12 13.0625 11.460938 13.601563 10.800781 13.601563 L 9.199219 13.601563 C 8.539063 13.601563 8 13.0625 8 12.398438 L 0.398438 12.398438 C 0.257813 12.398438 0.125 12.371094 0 12.324219 Z "/>
</g>
</svg>
