<?xml version="1.0" encoding="UTF-8"?>
<svg xmlns="http://www.w3.org/2000/svg" xmlns:xlink="http://www.w3.org/1999/xlink" width="100pt" height="100pt" viewBox="0 0 100 100" version="1.1">
<g id="surface1">
<path style=" stroke:none;fill-rule:nonzero;fill:oklch(87% 0.34 170);;fill-opacity:1;" d="M 50 0 C 38.710938 0 28.460938 2.023438 20.875 5.4375 C 17.082031 7.144531 13.960938 9.207031 11.6875 11.625 C 9.414063 14.042969 8 16.914063 8 20 L 8 39.625 C 7.988281 39.75 7.988281 39.875 8 40 L 8 59.625 C 7.988281 59.75 7.988281 59.875 8 60 L 8 78 C 8 81.085938 9.414063 83.957031 11.6875 86.375 C 13.960938 88.792969 17.082031 90.855469 20.875 92.5625 C 28.460938 95.976563 38.710938 98 50 98 C 61.289063 98 71.539063 95.976563 79.125 92.5625 C 82.917969 90.855469 86.039063 88.792969 88.3125 86.375 C 90.585938 83.957031 92 81.085938 92 78 L 92 20 C 92 16.914063 90.585938 14.042969 88.3125 11.625 C 86.039063 9.207031 82.917969 7.144531 79.125 5.4375 C 71.539063 2.023438 61.289063 0 50 0 Z M 50 4 C 60.804688 4 70.546875 6.023438 77.4375 9.125 C 80.882813 10.675781 83.601563 12.488281 85.375 14.375 C 87.148438 16.261719 88 18.113281 88 20 C 88 21.886719 87.148438 23.738281 85.375 25.625 C 83.601563 27.511719 80.882813 29.324219 77.4375 30.875 C 70.546875 33.976563 60.804688 36 50 36 C 39.195313 36 29.453125 33.976563 22.5625 30.875 C 19.117188 29.324219 16.398438 27.511719 14.625 25.625 C 12.851563 23.738281 12 21.886719 12 20 C 12 18.113281 12.851563 16.261719 14.625 14.375 C 16.398438 12.488281 19.117188 10.675781 22.5625 9.125 C 29.453125 6.023438 39.195313 4 50 4 Z M 12 28.6875 C 14.246094 30.972656 17.246094 32.929688 20.875 34.5625 C 28.460938 37.976563 38.710938 40 50 40 C 61.289063 40 71.539063 37.976563 79.125 34.5625 C 82.753906 32.929688 85.753906 30.972656 88 28.6875 L 88 39.6875 C 87.996094 39.75 87.996094 39.8125 88 39.875 L 88 40 C 88 41.886719 87.148438 43.738281 85.375 45.625 C 83.601563 47.511719 80.882813 49.324219 77.4375 50.875 C 70.546875 53.976563 60.804688 56 50 56 C 39.195313 56 29.453125 53.976563 22.5625 50.875 C 19.117188 49.324219 16.398438 47.511719 14.625 45.625 C 12.851563 43.738281 12 41.886719 12 40 C 12.011719 39.875 12.011719 39.75 12 39.625 Z M 12 48.6875 C 14.246094 50.972656 17.246094 52.929688 20.875 54.5625 C 28.460938 57.976563 38.710938 60 50 60 C 61.289063 60 71.539063 57.976563 79.125 54.5625 C 82.753906 52.929688 85.753906 50.972656 88 48.6875 L 88 59.6875 C 87.996094 59.75 87.996094 59.8125 88 59.875 L 88 60 C 88 61.886719 87.148438 63.738281 85.375 65.625 C 83.601563 67.511719 80.882813 69.324219 77.4375 70.875 C 70.546875 73.976563 60.804688 76 50 76 C 39.195313 76 29.453125 73.976563 22.5625 70.875 C 19.117188 69.324219 16.398438 67.511719 14.625 65.625 C 12.851563 63.738281 12 61.886719 12 60 C 12.011719 59.875 12.011719 59.75 12 59.625 Z M 12 68.6875 C 14.246094 70.972656 17.246094 72.929688 20.875 74.5625 C 28.460938 77.976563 38.710938 80 50 80 C 61.289063 80 71.539063 77.976563 79.125 74.5625 C 82.753906 72.929688 85.753906 70.972656 88 68.6875 L 88 78 C 88 79.886719 87.148438 81.738281 85.375 83.625 C 83.601563 85.511719 80.882813 87.324219 77.4375 88.875 C 70.546875 91.976563 60.804688 94 50 94 C 39.195313 94 29.453125 91.976563 22.5625 88.875 C 19.117188 87.324219 16.398438 85.511719 14.625 83.625 C 12.851563 81.738281 12 79.886719 12 78 Z "/>
</g>
</svg>
