<?xml version="1.0" encoding="UTF-8"?>
<svg xmlns="http://www.w3.org/2000/svg" xmlns:xlink="http://www.w3.org/1999/xlink" width="100pt" height="100pt" viewBox="0 0 100 100" version="1.1">
<g id="surface1">
<path style=" stroke:none;fill-rule:nonzero;fill:oklch(87% 0.34 170);;fill-opacity:1;" d="M 6 6 C 2.710938 6 0 8.710938 0 12 L 0 94 L 100 94 L 100 12 C 100 8.710938 97.289063 6 94 6 Z M 6 10 L 94 10 C 95.128906 10 96 10.871094 96 12 L 96 18 L 4 18 L 4 12 C 4 10.871094 4.871094 10 6 10 Z M 4 22 L 96 22 L 96 90 L 4 90 Z M 57.8125 29.9375 C 57.726563 29.953125 57.644531 29.972656 57.5625 30 C 56.902344 30.148438 56.363281 30.617188 56.125 31.25 L 38.125 75.25 C 37.710938 76.285156 38.214844 77.460938 39.25 77.875 C 40.285156 78.289063 41.460938 77.785156 41.875 76.75 L 59.875 32.75 C 60.175781 32.089844 60.09375 31.324219 59.667969 30.742188 C 59.238281 30.15625 58.53125 29.851563 57.8125 29.9375 Z M 31.875 41.9375 C 31.8125 41.957031 31.75 41.976563 31.6875 42 C 31.445313 42.039063 31.210938 42.125 31 42.25 L 17 50.25 C 16.363281 50.601563 15.96875 51.273438 15.96875 52 C 15.96875 52.726563 16.363281 53.398438 17 53.75 L 31 61.75 C 31.964844 62.300781 33.199219 61.964844 33.75 61 C 34.300781 60.035156 33.964844 58.800781 33 58.25 L 22.0625 52 L 33 45.75 C 33.9375 45.355469 34.429688 44.316406 34.140625 43.339844 C 33.851563 42.367188 32.878906 41.761719 31.875 41.9375 Z M 67.625 42 C 66.769531 42.128906 66.097656 42.796875 65.953125 43.648438 C 65.8125 44.5 66.234375 45.347656 67 45.75 L 77.9375 52 L 67 58.25 C 66.035156 58.800781 65.699219 60.035156 66.25 61 C 66.800781 61.964844 68.035156 62.300781 69 61.75 L 83 53.75 C 83.636719 53.398438 84.03125 52.726563 84.03125 52 C 84.03125 51.273438 83.636719 50.601563 83 50.25 L 69 42.25 C 68.585938 42.003906 68.097656 41.914063 67.625 42 Z "/>
</g>
</svg>
