<?xml version="1.0" encoding="UTF-8" standalone="no"?>
<!DOCTYPE svg PUBLIC "-//W3C//DTD SVG 1.1//EN" "http://www.w3.org/Graphics/SVG/1.1/DTD/svg11.dtd">
<svg width="100%" height="100%" viewBox="0 0 48 48" version="1.1" xmlns="http://www.w3.org/2000/svg" xmlns:xlink="http://www.w3.org/1999/xlink" xml:space="preserve" xmlns:serif="http://www.serif.com/" style="fill-rule:evenodd;clip-rule:evenodd;stroke-linejoin:round;stroke-miterlimit:2;">
    <g id="surface1">
        <path d="M12.647,9.834C11.875,9.063 10.625,9.063 9.853,9.834C9.847,9.841 9.841,9.847 9.834,9.853C9.063,10.625 9.063,11.875 9.834,12.647C13.144,15.956 21.188,24 21.188,24C21.188,24 13.144,32.044 9.834,35.353C9.063,36.125 9.063,37.375 9.834,38.147C9.841,38.153 9.847,38.159 9.853,38.166C10.625,38.937 11.875,38.937 12.647,38.166C15.956,34.856 24,26.813 24,26.813C24,26.813 32.044,34.856 35.353,38.166C36.125,38.937 37.375,38.937 38.147,38.166C38.153,38.159 38.159,38.153 38.166,38.147C38.937,37.375 38.937,36.125 38.166,35.353C34.856,32.044 26.813,24 26.813,24C26.813,24 34.856,15.956 38.166,12.647C38.937,11.875 38.937,10.625 38.166,9.853C38.159,9.847 38.153,9.841 38.147,9.834C37.375,9.063 36.125,9.063 35.353,9.834C32.044,13.144 24,21.188 24,21.188C24,21.188 15.956,13.144 12.647,9.834Z" style="fill:oklch(87% 0.34 170);fill-rule:nonzero;"/>
    </g>
</svg>
