<?xml version="1.0" encoding="UTF-8" standalone="no"?><!DOCTYPE svg PUBLIC "-//W3C//DTD SVG 1.1//EN" "http://www.w3.org/Graphics/SVG/1.1/DTD/svg11.dtd"><svg width="100%" height="100%" viewBox="0 0 380 257" version="1.1" xmlns="http://www.w3.org/2000/svg" xmlns:xlink="http://www.w3.org/1999/xlink" xml:space="preserve" style="fill-rule:evenodd;clip-rule:evenodd;stroke-linejoin:round;stroke-miterlimit:1.41421;"><g><path id="surface1" d="M356.192,183.767l-0.787,0.993l-6.241,7.652c-1.967,-0.492 -3.946,-0.811 -5.938,-0.855l-4.099,-8.96l-0.513,-1.154l-11.033,2.957l0.132,1.255l0.826,9.803c-1.707,1.031 -3.28,2.281 -4.755,3.687l-9.214,-3.444l-1.178,-0.466l-5.709,9.889l0.929,0.805l7.543,6.338c-0.485,1.977 -0.738,3.982 -0.775,5.984l-8.96,4.1l-1.154,0.513l2.957,11.033l1.255,-0.133l9.786,-0.889c1.035,1.723 2.308,3.302 3.727,4.778l-3.467,9.254l-0.466,1.178l9.889,5.709l0.805,-0.929l6.361,-7.583c1.98,0.48 3.97,0.678 5.967,0.712l4.22,9.029l0.513,1.154l11.033,-2.956l-0.109,-1.296l-1.01,-9.856c1.689,-1.021 3.283,-2.251 4.732,-3.646l9.381,3.433l1.161,0.402l5.709,-9.889l-0.992,-0.787l-7.653,-6.241c0.485,-1.964 0.711,-3.958 0.752,-5.944l9.029,-4.22l1.154,-0.513l-2.956,-11.033l-1.296,0.109l-9.792,0.993c-1.028,-1.712 -2.278,-3.285 -3.687,-4.755l3.41,-9.34l0.402,-1.162l-9.889,-5.709Zm0.726,3.849l5.547,3.203l-3.258,8.892l-0.343,0.874l0.728,0.688c1.769,1.705 3.205,3.64 4.356,5.731l0.468,0.86l0.962,-0.088l9.395,-0.954l1.688,6.174l-8.602,4.038l-0.877,0.405l-0.016,0.955c0.042,2.376 -0.276,4.772 -0.947,7.118l-0.223,0.943l0.711,0.625l7.354,6.015l-3.203,5.547l-8.932,-3.281l-0.937,-0.326l-0.665,0.687c-1.692,1.758 -3.612,3.228 -5.691,4.38l-0.82,0.491l0.088,0.962l0.931,9.435l-6.15,1.648l-4.038,-8.603l-0.405,-0.876l-0.979,0.024c-2.377,0.055 -4.784,-0.243 -7.141,-0.907l-0.92,-0.263l-0.625,0.711l-6.072,7.268l-5.588,-3.226l3.316,-8.806l0.366,-0.914l-0.728,-0.688c-1.769,-1.705 -3.258,-3.617 -4.419,-5.714l-0.428,-0.837l-1.002,0.065l-9.365,0.81l-1.625,-6.19l8.509,-3.878l0.877,-0.404l0.016,-0.956c-0.051,-2.408 0.209,-4.83 0.89,-7.205l0.263,-0.92l-0.711,-0.625l-7.187,-6.025l3.202,-5.547l8.766,3.292l0.937,0.326l0.665,-0.688c1.724,-1.778 3.672,-3.273 5.777,-4.436l0.86,-0.468l-0.088,-0.962l-0.81,-9.365l6.151,-1.649l3.917,8.533l0.382,0.917l0.978,-0.024c2.389,-0.041 4.8,0.285 7.158,0.97l0.961,0.287l0.608,-0.775l5.968,-7.274Zm-7.584,19.634c-6.376,-3.682 -14.58,-1.484 -18.261,4.893c-3.682,6.377 -1.483,14.58 4.893,18.261c6.377,3.682 14.58,1.484 18.261,-4.893c3.682,-6.376 1.484,-14.58 -4.893,-18.261Zm-1.485,2.573c4.99,2.88 6.686,9.213 3.806,14.203c-2.881,4.99 -9.214,6.686 -14.204,3.806c-4.989,-2.881 -6.686,-9.214 -3.805,-14.204c2.88,-4.989 9.213,-6.686 14.203,-3.805Z" style="fill:#e5e9eb;fill-rule:nonzero;"/><path id="surface11" d="M223.132,186.13c-1.143,-0.093 -2.414,0.238 -3.586,1.062c-1.032,0.719 -3.26,2.489 -5.343,4.491c-1.039,0.998 -2.031,2.036 -2.797,3.058c-0.772,1.021 -1.445,1.955 -1.404,3.313c0.04,1.218 0.162,4.821 2.756,10.345c2.593,5.518 7.624,13.09 17.435,22.907c9.818,9.817 17.39,14.848 22.907,17.441c5.518,2.594 9.127,2.716 10.346,2.757c1.352,0.04 2.286,-0.633 3.307,-1.405c1.021,-0.771 2.06,-1.758 3.058,-2.796c1.996,-2.083 3.765,-4.311 4.485,-5.344c1.642,-2.338 1.369,-5.1 -0.458,-6.383c-1.149,-0.806 -11.715,-7.838 -13.305,-8.813c-1.613,-0.986 -3.47,-0.54 -5.129,0.336c-1.306,0.691 -4.839,2.716 -5.849,3.296c-0.76,-0.481 -3.643,-2.402 -9.846,-8.605c-6.208,-6.202 -8.123,-9.086 -8.605,-9.846c0.581,-1.009 2.6,-4.526 3.296,-5.854c0.87,-1.654 1.358,-3.528 0.319,-5.153c-0.435,-0.69 -2.414,-3.701 -4.41,-6.724c-2.001,-3.023 -3.899,-5.89 -4.392,-6.574l0,-0.006c-0.644,-0.888 -1.648,-1.41 -2.785,-1.503Zm-0.273,3.035c0.407,0.052 0.65,0.214 0.65,0.214c0.238,0.331 2.321,3.453 4.317,6.47c1.996,3.023 4.033,6.121 4.387,6.684c0.058,0.087 0.139,1.073 -0.441,2.17l0,0.006c-0.656,1.247 -3.714,6.591 -3.714,6.591l-0.423,0.749l0.435,0.742c0,0 2.28,3.847 9.533,11.1c7.258,7.253 11.105,9.539 11.105,9.539l0.743,0.435l0.748,-0.424c0,0 5.333,-3.052 6.592,-3.713c1.096,-0.575 2.083,-0.499 2.199,-0.429c1.027,0.632 12.44,8.215 13.142,8.709c0.023,0.017 0.644,0.957 -0.261,2.245l-0.006,0c-0.546,0.783 -2.333,3.052 -4.195,4.99c-0.934,0.969 -1.892,1.874 -2.704,2.483c-0.812,0.61 -1.538,0.801 -1.422,0.807c-1.264,-0.041 -4.055,-0.07 -9.179,-2.478c-5.123,-2.402 -12.434,-7.212 -22.071,-16.855c-9.632,-9.632 -14.442,-16.943 -16.85,-22.072c-2.402,-5.123 -2.431,-7.914 -2.472,-9.173c0.006,0.116 0.198,-0.615 0.807,-1.427c0.609,-0.813 1.509,-1.776 2.478,-2.71c1.943,-1.862 4.206,-3.649 4.989,-4.195l0,0.006c0.644,-0.453 1.207,-0.511 1.613,-0.464Z" style="fill:#e5e9eb;fill-rule:nonzero;"/><path id="surface12" d="M102.029,106.27l0,2.971l74.268,0l0,-2.971l-74.268,0Zm0,22.281l0,2.97l74.268,0l0,-2.97l-74.268,0Zm0,22.28l0,2.971l74.268,0l0,-2.971l-74.268,0Z" style="fill:#e5e9eb;fill-rule:nonzero;"/><path id="surface13" d="M62.896,184.647c-1.399,0 -2.837,0.516 -3.899,1.578l-1.996,2.042l7.705,7.706c-0.006,0.005 2.042,-1.996 2.042,-1.996c2.13,-2.13 2.13,-5.623 0,-7.752c-1.067,-1.068 -2.454,-1.578 -3.852,-1.578Zm-8.309,5.848l-33.746,33.746l-0.092,0.464l-1.393,7.195l-0.464,2.182l2.182,-0.465l7.194,-1.392l0.464,-0.093l33.746,-33.746l-2.135,-2.088l-33.049,33.003l-3.621,-3.621l33.003,-33.049l-2.089,-2.136Zm-53.102,6.035c-0.824,0 -1.485,0.667 -1.485,1.485l0,53.473c0,0.818 0.661,1.485 1.485,1.485l53.473,0c0.824,0 1.486,-0.667 1.486,-1.485l0,-43.075l-2.971,2.97l0,38.62l-50.502,0l0,-50.503l38.619,0l2.971,-2.97l-43.076,0Z" style="fill:#e5e9eb;fill-rule:nonzero;"/><path id="surface14" d="M107.971,188.36c-1.636,0 -2.971,1.335 -2.971,2.971l0,43.075c0,1.637 1.335,2.971 2.971,2.971l22.28,0l0,4.456l-4.456,0c-2.454,0 -4.456,2.002 -4.456,4.456l0,2.971l35.649,0l0,-2.971c0,-2.454 -2.002,-4.456 -4.456,-4.456l-4.457,0l0,-4.456l22.281,0c1.636,0 2.971,-1.334 2.971,-2.971l0,-43.075c0,-1.636 -1.335,-2.971 -2.971,-2.971l-62.385,0Zm0,2.971l62.385,0l0,43.075l-62.385,0l0,-5.941l62.385,0l0,-2.971l-62.385,0l0,-34.163Zm54.958,38.619l0,2.971l2.971,0l0,-2.971l-2.971,0Zm-29.707,7.427l11.883,0l0,4.456l-11.883,0l0,-4.456Zm-7.427,7.427l26.737,0c0.818,0 1.485,0.667 1.485,1.485l-29.707,0c0,-0.818 0.667,-1.485 1.485,-1.485Z" style="fill:#e5e9eb;fill-rule:nonzero;"/><path id="surface15" d="M248.633,106.665c-7.746,0 -14.303,4.636 -17.453,11.186c-1.677,-1.154 -3.621,-1.996 -5.803,-1.996c-5.535,0 -9.95,4.381 -10.258,9.841c-5.535,1.996 -9.562,7.16 -9.562,13.368c0,7.914 6.429,14.343 14.343,14.343l46.696,0c7.288,0 13.229,-5.941 13.229,-13.229c0,-6.759 -5.187,-12.132 -11.743,-12.904c0.023,-0.36 0.092,-0.696 0.092,-1.068c0,-10.768 -8.773,-19.541 -19.541,-19.541Zm0,2.97c9.167,0 16.571,7.41 16.571,16.571c0,0.679 -0.053,1.347 -0.14,2.043l-0.232,1.671l1.764,0c5.681,0 10.258,4.578 10.258,10.258c0,5.68 -4.577,10.258 -10.258,10.258l-46.696,0c-6.313,0 -11.372,-5.065 -11.372,-11.372c0,-5.251 3.539,-9.672 8.355,-11.001l1.114,-0.278l-0.046,-1.207c-0.006,-0.209 0,-0.314 0,-0.325c0,-4.126 3.301,-7.427 7.426,-7.427c2.066,0 3.946,0.83 5.292,2.182l1.625,1.671l0.789,-2.182c2.338,-6.313 8.407,-10.862 15.55,-10.862Z" style="fill:#e5e9eb;fill-rule:nonzero;"/><path id="surface16" d="M48.428,0.971c-0.371,-0.07 -0.744,-0.115 -1.124,-0.109l-27.209,0.398c-3.058,0.046 -5.545,2.581 -5.5,5.639l0.688,44.779c-0.015,0.146 -0.006,0.293 0.027,0.44l0.082,6.509c0.045,3.058 2.592,5.5 5.65,5.455l27.21,-0.398c3.057,-0.046 5.545,-2.581 5.499,-5.639l-0.097,-6.273c0.113,-0.331 0.106,-0.687 -0.017,-1.014l-0.682,-44.441c-0.035,-2.292 -1.442,-4.237 -3.45,-5.058c-0.336,-0.138 -0.705,-0.218 -1.077,-0.288Zm-0.532,2.885c1.195,0.224 2.087,1.268 2.108,2.535l0.62,43.416l-32.412,0.445l-0.621,-43.416c-0.019,-1.452 1.125,-2.606 2.578,-2.625l27.21,-0.398c0.181,-0.005 0.346,0.009 0.517,0.043Zm10.712,13.106c-0.432,-0.044 -0.864,0.111 -1.181,0.416c-0.309,0.302 -0.478,0.731 -0.444,1.167l0.398,27.209c0.018,0.828 0.701,1.486 1.529,1.467c0.828,-0.018 1.485,-0.701 1.467,-1.529l-0.398,-27.21c0.007,-0.676 -0.446,-1.272 -1.102,-1.448l-0.269,-0.072Zm6.902,6.703c-0.433,-0.044 -0.864,0.111 -1.181,0.416c-0.309,0.302 -0.478,0.731 -0.444,1.167l0.199,13.604c0.018,0.828 0.701,1.486 1.529,1.467c0.828,-0.018 1.485,-0.701 1.467,-1.529l-0.199,-13.605c0.007,-0.676 -0.446,-1.272 -1.102,-1.448l-0.269,-0.072Zm-55.78,-5.96c-0.048,-0.001 -0.098,0.004 -0.147,0.009c-0.423,-0.036 -0.846,0.109 -1.154,0.405c-0.307,0.296 -0.478,0.707 -0.459,1.132l0.398,27.21c0.018,0.828 0.701,1.485 1.529,1.467c0.828,-0.018 1.485,-0.701 1.467,-1.529l-0.398,-27.21c0.007,-0.677 -0.446,-1.273 -1.102,-1.448c-0.045,-0.012 -0.09,-0.024 -0.134,-0.036Zm-6.703,6.902c-0.048,-0.001 -0.098,0.004 -0.147,0.008c-0.423,-0.035 -0.846,0.11 -1.154,0.406c-0.307,0.296 -0.478,0.707 -0.459,1.132l0.199,13.605c0.018,0.828 0.701,1.486 1.529,1.467c0.828,-0.018 1.485,-0.701 1.467,-1.529l-0.199,-13.605c0.007,-0.677 -0.446,-1.273 -1.102,-1.448c-0.045,-0.012 -0.09,-0.024 -0.134,-0.036Zm47.66,28.196l0.068,5.304c0.019,1.453 -1.125,2.606 -2.577,2.625l-27.21,0.398c-1.453,0.019 -2.606,-1.124 -2.625,-2.577l-0.069,-5.305l32.413,-0.445Zm-15.766,2.167c-0.132,-0.024 -0.276,-0.068 -0.416,-0.064c-1.127,0.017 -2.022,0.978 -2.006,2.106c0.017,1.127 0.933,2.01 2.061,1.994c1.128,-0.017 2.01,-0.933 1.994,-2.061c-0.012,-0.988 -0.702,-1.798 -1.633,-1.975Z" style="fill:#e5e9eb;fill-rule:nonzero;"/><path id="surface17" d="M33.581,136.874c1.334,3.715 0.441,7.871 -2.377,10.842l-8.906,8.916c-1.931,1.933 -4.604,2.972 -7.271,2.972c-2.824,0 -5.346,-1.039 -7.277,-2.972c-4.007,-4.011 -4.007,-10.698 0,-14.708l8.906,-8.916c1.931,-1.933 4.604,-2.972 7.277,-2.972c1.183,0 2.371,0.151 3.409,0.592l2.227,-2.229c-1.78,-0.888 -3.856,-1.335 -5.787,-1.335c-3.415,0 -6.83,1.335 -9.498,3.866l-8.906,8.916c-5.195,5.2 -5.195,13.669 0,18.87c2.667,2.676 6.083,4.011 9.498,4.011c3.415,0 6.83,-1.335 9.498,-3.866l8.906,-8.916c4.157,-4.156 4.899,-10.25 2.528,-15.155l-2.227,2.084Zm29.386,-35.663c-2.667,-2.531 -6.082,-3.866 -9.497,-3.866c-3.416,0 -6.831,1.335 -9.498,3.866l-8.906,8.915c-4.158,4.156 -4.9,10.251 -2.528,15.156l2.226,-2.229c-1.333,-3.715 -0.44,-7.877 2.378,-10.849l8.906,-8.915c1.931,-1.933 4.604,-2.972 7.271,-2.972c2.824,0 5.346,1.039 7.277,2.972c4.007,4.011 4.007,10.697 0,14.708l-8.906,8.916c-1.931,1.933 -4.604,2.972 -7.277,2.972c-1.183,0 -2.372,-0.145 -3.41,-0.592l-2.226,2.229c1.78,0.894 3.711,1.335 5.786,1.335c3.416,0 6.831,-1.335 9.498,-3.86l8.906,-8.916c5.196,-5.056 5.196,-13.67 0,-18.87Zm-18.253,18.272c-0.301,-0.296 -0.597,-0.441 -1.044,-0.441c-0.295,0 -0.742,0.145 -1.037,0.441l-18.851,18.877c-0.591,0.592 -0.591,1.486 0,2.078c0.296,0.296 0.742,0.447 1.038,0.447c0.296,0 0.742,-0.151 1.038,-0.447l18.856,-18.871c0.592,-0.598 0.592,-1.486 0,-2.084Z" style="fill:#e5e9eb;fill-rule:nonzero;"/></g></svg>