<?xml version="1.0" encoding="UTF-8" standalone="no"?>
<!DOCTYPE svg PUBLIC "-//W3C//DTD SVG 1.1//EN" "http://www.w3.org/Graphics/SVG/1.1/DTD/svg11.dtd">
<svg width="100%" height="100%" viewBox="0 0 447 96" version="1.1" xmlns="http://www.w3.org/2000/svg" xmlns:xlink="http://www.w3.org/1999/xlink" xml:space="preserve" xmlns:serif="http://www.serif.com/" style="fill-rule:evenodd;clip-rule:evenodd;stroke-linejoin:round;stroke-miterlimit:2;">
    <g>
        <g>
            <g>
                <g>
                    <g>
                        <clipPath id="_clip1">
                            <rect x="0.604" y="0.409" width="95.591" height="95.591"/>
                        </clipPath>
                        <g clip-path="url(#_clip1)">
                            <path d="M18.633,18.416C23.741,13.309 29.299,8.242 34.478,4.535C39.532,0.918 46.52,-0.325 52.291,0.822C55.821,1.354 59.307,2.648 62.172,4.703C67.33,8.4 72.861,13.44 77.954,18.527C77.976,18.548 77.995,18.568 78.015,18.589C78.036,18.608 78.056,18.628 78.075,18.649C83.163,23.741 88.204,29.274 91.899,34.43C93.955,37.297 95.25,40.782 95.782,44.313C96.927,50.084 95.684,57.071 92.068,62.126C88.362,67.305 83.295,72.863 78.187,77.97C78.184,77.974 78.178,77.977 78.175,77.981C78.171,77.985 78.168,77.988 78.164,77.993C73.056,83.101 67.499,88.168 62.32,91.874C57.265,95.49 50.278,96.733 44.507,95.588C40.976,95.056 37.491,93.76 34.625,91.705C29.468,88.01 23.937,82.97 18.843,77.881C18.822,77.862 18.802,77.84 18.783,77.821C18.761,77.801 18.742,77.78 18.721,77.76L18.722,77.76C13.634,72.667 8.594,67.136 4.898,61.978C2.842,59.111 1.548,55.627 1.016,52.095C-0.131,46.326 1.114,39.337 4.729,34.284C8.436,29.103 13.503,23.546 18.61,18.44L18.633,18.416" style="fill:rgb(230,239,238);"/>
                        </g>
                    </g>
                </g>
            </g>
            <path d="M55.619,13.761C50.763,14.23 45.136,15.457 39.794,16.882C39.788,16.882 39.785,16.884 39.781,16.885C39.778,16.885 39.772,16.887 39.769,16.887C34.426,18.312 28.936,20.049 24.495,22.057C10.952,28.106 13.848,38.768 14.013,40.441C14.493,45.264 15.724,50.852 17.152,56.166L17.15,56.166C17.157,56.188 17.163,56.209 17.168,56.23C17.173,56.252 17.179,56.273 17.186,56.294C18.619,61.607 20.362,67.058 22.372,71.474C23.067,73.007 25.918,83.679 40.686,82.18C45.542,81.709 51.169,80.483 56.511,79.059C56.517,79.057 56.52,79.057 56.524,79.055C56.527,79.054 56.533,79.054 56.536,79.052C61.879,77.629 67.369,75.891 71.81,73.882C85.353,67.835 82.457,57.173 82.292,55.5C81.81,50.675 80.581,45.088 79.153,39.772C79.148,39.751 79.142,39.732 79.137,39.71C79.132,39.689 79.125,39.668 79.119,39.646C77.686,34.334 75.943,28.883 73.933,24.465C73.238,22.934 70.387,12.26 55.619,13.761" style="fill:rgb(4,46,62);"/>
            <path d="M57.969,27.901C54.889,27.387 51.206,27.211 47.666,27.206L47.65,27.206C44.111,27.199 40.428,27.361 37.35,27.862C27.975,29.345 28.002,36.39 27.829,37.448C27.33,40.498 27.166,44.142 27.17,47.651L27.17,47.735C27.178,51.244 27.356,54.888 27.868,57.94C28.046,58.998 28.045,66.042 37.424,67.561C40.506,68.073 44.188,68.249 47.729,68.256L47.745,68.256C51.284,68.264 54.965,68.102 58.044,67.598C67.42,66.115 67.391,59.071 67.566,58.014C68.066,54.964 68.229,51.32 68.224,47.811L68.224,47.728C68.215,44.219 68.039,40.575 67.527,37.523C67.349,36.465 67.351,29.42 57.969,27.901" style="fill:rgb(63,243,144);"/>
            <path d="M51.461,36.274C51.319,35.23 51.253,34.062 51.235,32.865C52.98,32.936 54.755,33.091 56.257,33.388C61.299,34.364 61.182,38.197 61.26,38.775C61.401,39.819 61.468,40.987 61.484,42.184C59.74,42.113 57.966,41.96 56.464,41.661C51.422,40.685 51.539,36.852 51.461,36.274" style="fill:rgb(4,46,62);"/>
        </g>
        <g transform="matrix(4.78013,0,0,4.9572,-550.898,-8.97064)">
            <path d="M149.804,9.446L147.752,16.022L146.624,16.022L145.04,10.802L143.456,16.022L142.328,16.022L140.264,9.446L141.38,9.446L142.892,14.966L144.524,9.446L145.64,9.446L147.236,14.978L148.724,9.446L149.804,9.446Z" style="fill:rgb(4,46,62);fill-rule:nonzero;"/>
            <rect x="150.884" y="9.446" width="1.092" height="6.576" style="fill:rgb(4,46,62);fill-rule:nonzero;"/>
            <path d="M154.928,10.514C155.12,10.138 155.394,9.846 155.75,9.638C156.106,9.43 156.54,9.326 157.052,9.326L157.052,10.454L156.764,10.454C155.54,10.454 154.928,11.118 154.928,12.446L154.928,16.022L153.836,16.022L153.836,9.446L154.928,9.446L154.928,10.514Z" style="fill:rgb(4,46,62);fill-rule:nonzero;"/>
            <path d="M164.312,12.482C164.312,12.69 164.3,12.91 164.276,13.142L159.02,13.142C159.06,13.79 159.282,14.296 159.686,14.66C160.09,15.024 160.58,15.206 161.156,15.206C161.628,15.206 162.022,15.096 162.338,14.876C162.654,14.656 162.876,14.362 163.004,13.994L164.18,13.994C164.004,14.626 163.652,15.14 163.124,15.536C162.596,15.932 161.94,16.13 161.156,16.13C160.532,16.13 159.974,15.99 159.482,15.71C158.99,15.43 158.604,15.032 158.324,14.516C158.044,14 157.904,13.402 157.904,12.722C157.904,12.042 158.04,11.446 158.312,10.934C158.584,10.422 158.966,10.028 159.458,9.752C159.95,9.476 160.516,9.338 161.156,9.338C161.78,9.338 162.332,9.474 162.812,9.746C163.292,10.018 163.662,10.392 163.922,10.868C164.182,11.344 164.312,11.882 164.312,12.482ZM163.184,12.254C163.184,11.838 163.092,11.48 162.908,11.18C162.724,10.88 162.474,10.652 162.158,10.496C161.842,10.34 161.492,10.262 161.108,10.262C160.556,10.262 160.086,10.438 159.698,10.79C159.31,11.142 159.088,11.63 159.032,12.254L163.184,12.254Z" style="fill:rgb(4,46,62);fill-rule:nonzero;"/>
            <path d="M165.344,12.71C165.344,12.038 165.48,11.448 165.752,10.94C166.024,10.432 166.398,10.038 166.874,9.758C167.35,9.478 167.884,9.338 168.476,9.338C168.988,9.338 169.464,9.456 169.904,9.692C170.344,9.928 170.68,10.238 170.912,10.622L170.912,7.142L172.016,7.142L172.016,16.022L170.912,16.022L170.912,14.786C170.696,15.178 170.376,15.5 169.952,15.752C169.528,16.004 169.032,16.13 168.464,16.13C167.88,16.13 167.35,15.986 166.874,15.698C166.398,15.41 166.024,15.006 165.752,14.486C165.48,13.966 165.344,13.374 165.344,12.71ZM170.912,12.722C170.912,12.226 170.812,11.794 170.612,11.426C170.412,11.058 170.142,10.776 169.802,10.58C169.462,10.384 169.088,10.286 168.68,10.286C168.272,10.286 167.9,10.382 167.564,10.574C167.228,10.766 166.96,11.046 166.76,11.414C166.56,11.782 166.46,12.214 166.46,12.71C166.46,13.214 166.56,13.652 166.76,14.024C166.96,14.396 167.228,14.68 167.564,14.876C167.9,15.072 168.272,15.17 168.68,15.17C169.088,15.17 169.462,15.072 169.802,14.876C170.142,14.68 170.412,14.396 170.612,14.024C170.812,13.652 170.912,13.218 170.912,12.722Z" style="fill:rgb(4,46,62);fill-rule:nonzero;"/>
            <path d="M176.54,10.346L175.16,10.346L175.16,16.022L174.068,16.022L174.068,10.346L173.216,10.346L173.216,9.446L174.068,9.446L174.068,8.978C174.068,8.242 174.258,7.704 174.638,7.364C175.018,7.024 175.628,6.854 176.468,6.854L176.468,7.766C175.988,7.766 175.65,7.86 175.454,8.048C175.258,8.236 175.16,8.546 175.16,8.978L175.16,9.446L176.54,9.446L176.54,10.346Z" style="fill:rgb(4,46,62);fill-rule:nonzero;"/>
            <path d="M178.904,10.514C179.096,10.138 179.37,9.846 179.726,9.638C180.082,9.43 180.516,9.326 181.028,9.326L181.028,10.454L180.74,10.454C179.516,10.454 178.904,11.118 178.904,12.446L178.904,16.022L177.812,16.022L177.812,9.446L178.904,9.446L178.904,10.514Z" style="fill:rgb(4,46,62);fill-rule:nonzero;"/>
            <path d="M181.88,12.71C181.88,12.038 182.016,11.448 182.288,10.94C182.56,10.432 182.934,10.038 183.41,9.758C183.886,9.478 184.416,9.338 185,9.338C185.576,9.338 186.076,9.462 186.5,9.71C186.924,9.958 187.24,10.27 187.448,10.646L187.448,9.446L188.552,9.446L188.552,16.022L187.448,16.022L187.448,14.798C187.232,15.182 186.91,15.5 186.482,15.752C186.054,16.004 185.556,16.13 184.988,16.13C184.404,16.13 183.876,15.986 183.404,15.698C182.932,15.41 182.56,15.006 182.288,14.486C182.016,13.966 181.88,13.374 181.88,12.71ZM187.448,12.722C187.448,12.226 187.348,11.794 187.148,11.426C186.948,11.058 186.678,10.776 186.338,10.58C185.998,10.384 185.624,10.286 185.216,10.286C184.808,10.286 184.436,10.382 184.1,10.574C183.764,10.766 183.496,11.046 183.296,11.414C183.096,11.782 182.996,12.214 182.996,12.71C182.996,13.214 183.096,13.652 183.296,14.024C183.496,14.396 183.764,14.68 184.1,14.876C184.436,15.072 184.808,15.17 185.216,15.17C185.624,15.17 185.998,15.072 186.338,14.876C186.678,14.68 186.948,14.396 187.148,14.024C187.348,13.652 187.448,13.218 187.448,12.722Z" style="fill:rgb(4,46,62);fill-rule:nonzero;"/>
            <path d="M198.308,9.326C198.82,9.326 199.276,9.432 199.676,9.644C200.076,9.856 200.392,10.174 200.624,10.598C200.856,11.022 200.972,11.538 200.972,12.146L200.972,16.022L199.892,16.022L199.892,12.302C199.892,11.646 199.73,11.144 199.406,10.796C199.082,10.448 198.644,10.274 198.092,10.274C197.524,10.274 197.072,10.456 196.736,10.82C196.4,11.184 196.232,11.71 196.232,12.398L196.232,16.022L195.152,16.022L195.152,12.302C195.152,11.646 194.99,11.144 194.666,10.796C194.342,10.448 193.904,10.274 193.352,10.274C192.784,10.274 192.332,10.456 191.996,10.82C191.66,11.184 191.492,11.71 191.492,12.398L191.492,16.022L190.4,16.022L190.4,9.446L191.492,9.446L191.492,10.394C191.708,10.05 191.998,9.786 192.362,9.602C192.726,9.418 193.128,9.326 193.568,9.326C194.12,9.326 194.608,9.45 195.032,9.698C195.456,9.946 195.772,10.31 195.98,10.79C196.164,10.326 196.468,9.966 196.892,9.71C197.316,9.454 197.788,9.326 198.308,9.326Z" style="fill:rgb(4,46,62);fill-rule:nonzero;"/>
            <path d="M208.76,12.482C208.76,12.69 208.748,12.91 208.724,13.142L203.468,13.142C203.508,13.79 203.73,14.296 204.134,14.66C204.538,15.024 205.028,15.206 205.604,15.206C206.076,15.206 206.47,15.096 206.786,14.876C207.102,14.656 207.324,14.362 207.452,13.994L208.628,13.994C208.452,14.626 208.1,15.14 207.572,15.536C207.044,15.932 206.388,16.13 205.604,16.13C204.98,16.13 204.422,15.99 203.93,15.71C203.438,15.43 203.052,15.032 202.772,14.516C202.492,14 202.352,13.402 202.352,12.722C202.352,12.042 202.488,11.446 202.76,10.934C203.032,10.422 203.414,10.028 203.906,9.752C204.398,9.476 204.964,9.338 205.604,9.338C206.228,9.338 206.78,9.474 207.26,9.746C207.74,10.018 208.11,10.392 208.37,10.868C208.63,11.344 208.76,11.882 208.76,12.482ZM207.632,12.254C207.632,11.838 207.54,11.48 207.356,11.18C207.172,10.88 206.922,10.652 206.606,10.496C206.29,10.34 205.94,10.262 205.556,10.262C205.004,10.262 204.534,10.438 204.146,10.79C203.758,11.142 203.536,11.63 203.48,12.254L207.632,12.254Z" style="fill:rgb(4,46,62);fill-rule:nonzero;"/>
        </g>
        <g transform="matrix(1,0,0,1,114.081,-9.319)">
            <path d="M51.461,36.274C51.319,35.23 51.253,34.062 51.235,32.865C52.98,32.936 54.755,33.091 56.257,33.388C61.299,34.364 61.182,38.197 61.26,38.775C61.401,39.819 61.468,40.987 61.484,42.184C59.74,42.113 57.966,41.96 56.464,41.661C51.422,40.685 51.539,36.852 51.461,36.274" style="fill:rgb(63,243,144);"/>
        </g>
    </g>
</svg>
