<?xml version="1.0" encoding="UTF-8" standalone="no"?>
<!DOCTYPE svg PUBLIC "-//W3C//DTD SVG 1.1//EN" "http://www.w3.org/Graphics/SVG/1.1/DTD/svg11.dtd">
<svg width="100%" height="100%" viewBox="0 0 417 96" version="1.1" xmlns="http://www.w3.org/2000/svg" xmlns:xlink="http://www.w3.org/1999/xlink" xml:space="preserve" xmlns:serif="http://www.serif.com/" style="fill-rule:evenodd;clip-rule:evenodd;stroke-linejoin:round;stroke-miterlimit:2;">
    <g id="Logo" transform="matrix(0.933769,0,0,1,0,0)">
        <rect x="0" y="0" width="446.396" height="95.591" style="fill:none;"/>
        <clipPath id="_clip1">
            <rect x="0" y="0" width="446.396" height="95.591"/>
        </clipPath>
        <g clip-path="url(#_clip1)">
            <g transform="matrix(1.07093,0,0,1,0,-0.0306118)">
                <g>
                    <g>
                        <clipPath id="_clip2">
                            <rect x="0.604" y="0.409" width="95.591" height="95.591"/>
                        </clipPath>
                        <g clip-path="url(#_clip2)">
                            <path d="M18.633,18.416C23.741,13.309 29.299,8.242 34.478,4.535C39.532,0.918 46.52,-0.325 52.291,0.822C55.821,1.354 59.307,2.648 62.172,4.703C67.33,8.4 72.861,13.44 77.954,18.527C77.976,18.548 77.995,18.568 78.015,18.589C78.036,18.608 78.056,18.628 78.075,18.649C83.163,23.741 88.204,29.274 91.899,34.43C93.955,37.297 95.25,40.782 95.782,44.313C96.927,50.084 95.684,57.071 92.068,62.126C88.362,67.305 83.295,72.863 78.187,77.97C78.184,77.974 78.178,77.977 78.175,77.981C78.171,77.985 78.168,77.988 78.164,77.993C73.056,83.101 67.499,88.168 62.32,91.874C57.265,95.49 50.278,96.733 44.507,95.588C40.976,95.056 37.491,93.76 34.625,91.705C29.468,88.01 23.937,82.97 18.843,77.881C18.822,77.862 18.802,77.84 18.783,77.821C18.761,77.801 18.742,77.78 18.721,77.76L18.722,77.76C13.634,72.667 8.594,67.136 4.898,61.978C2.842,59.111 1.548,55.627 1.016,52.095C-0.131,46.326 1.114,39.337 4.729,34.284C8.436,29.103 13.503,23.546 18.61,18.44L18.633,18.416" style="fill:rgb(230,239,238);"/>
                        </g>
                    </g>
                </g>
            </g>
            <g transform="matrix(1.07093,0,0,1,0,-0.0306118)">
                <path d="M55.619,13.761C50.763,14.23 45.136,15.457 39.794,16.882C39.788,16.882 39.785,16.884 39.781,16.885C39.778,16.885 39.772,16.887 39.769,16.887C34.426,18.312 28.936,20.049 24.495,22.057C10.952,28.106 13.848,38.768 14.013,40.441C14.493,45.264 15.724,50.852 17.152,56.166L17.15,56.166C17.157,56.188 17.163,56.209 17.168,56.23C17.173,56.252 17.179,56.273 17.186,56.294C18.619,61.607 20.362,67.058 22.372,71.474C23.067,73.007 25.918,83.679 40.686,82.18C45.542,81.709 51.169,80.483 56.511,79.059C56.517,79.057 56.52,79.057 56.524,79.055C56.527,79.054 56.533,79.054 56.536,79.052C61.879,77.629 67.369,75.891 71.81,73.882C85.353,67.835 82.457,57.173 82.292,55.5C81.81,50.675 80.581,45.088 79.153,39.772C79.148,39.751 79.142,39.732 79.137,39.71C79.132,39.689 79.125,39.668 79.119,39.646C77.686,34.334 75.943,28.883 73.933,24.465C73.238,22.934 70.387,12.26 55.619,13.761" style="fill:rgb(4,46,62);"/>
            </g>
            <g transform="matrix(1.07093,0,0,1,0,-0.0306118)">
                <path d="M57.969,27.901C54.889,27.387 51.206,27.211 47.666,27.206L47.65,27.206C44.111,27.199 40.428,27.361 37.35,27.862C27.975,29.345 28.002,36.39 27.829,37.448C27.33,40.498 27.166,44.142 27.17,47.651L27.17,47.735C27.178,51.244 27.356,54.888 27.868,57.94C28.046,58.998 28.045,66.042 37.424,67.561C40.506,68.073 44.188,68.249 47.729,68.256L47.745,68.256C51.284,68.264 54.965,68.102 58.044,67.598C67.42,66.115 67.391,59.071 67.566,58.014C68.066,54.964 68.229,51.32 68.224,47.811L68.224,47.728C68.215,44.219 68.039,40.575 67.527,37.523C67.349,36.465 67.351,29.42 57.969,27.901" style="fill:rgb(63,243,144);"/>
            </g>
            <g transform="matrix(1.07093,0,0,1,0,-0.0306118)">
                <path d="M51.461,36.274C51.319,35.23 51.253,34.062 51.235,32.865C52.98,32.936 54.755,33.091 56.257,33.388C61.299,34.364 61.182,38.197 61.26,38.775C61.401,39.819 61.468,40.987 61.484,42.184C59.74,42.113 57.966,41.96 56.464,41.661C51.422,40.685 51.539,36.852 51.461,36.274" style="fill:rgb(4,46,62);"/>
            </g>
            <g transform="matrix(1.07093,0,0,1,113.752,-8.29897)">
                <path d="M51.461,36.274C51.319,35.23 51.253,34.062 51.235,32.865C52.98,32.936 54.755,33.091 56.257,33.388C61.299,34.364 61.182,38.197 61.26,38.775C61.401,39.819 61.468,40.987 61.484,42.184C59.74,42.113 57.966,41.96 56.464,41.661C51.422,40.685 51.539,36.852 51.461,36.274" style="fill:rgb(63,243,144);"/>
            </g>
            <g transform="matrix(1.07093,0,0,1,-85.1478,-63.8763)">
                <path d="M374.151,117.829C374.151,114.537 374.811,111.622 376.13,109.084C377.45,106.546 379.247,104.573 381.522,103.165C383.798,101.757 386.312,101.053 389.065,101.053C391.551,101.053 393.721,101.559 395.576,102.57C397.431,103.582 398.912,104.841 400.021,106.348L400.021,101.589L406.618,101.589L406.618,134.366L400.021,134.366L400.021,129.488C398.912,131.035 397.402,132.323 395.49,133.355C393.578,134.386 391.398,134.901 388.951,134.901C386.235,134.901 383.75,134.177 381.494,132.73C379.237,131.282 377.45,129.26 376.13,126.662C374.811,124.065 374.151,121.12 374.151,117.829ZM400.021,117.948C400.021,115.687 399.572,113.724 398.673,112.058C397.775,110.393 396.599,109.124 395.146,108.251C393.692,107.379 392.125,106.943 390.442,106.943C388.759,106.943 387.191,107.369 385.738,108.222C384.285,109.074 383.109,110.323 382.211,111.969C381.312,113.615 380.863,115.568 380.863,117.829C380.863,120.089 381.312,122.072 382.211,123.777C383.109,125.483 384.295,126.781 385.767,127.674C387.239,128.566 388.798,129.012 390.442,129.012C392.125,129.012 393.692,128.576 395.146,127.703C396.599,126.831 397.775,125.552 398.673,123.866C399.572,122.181 400.021,120.208 400.021,117.948Z" style="fill:rgb(4,46,62);fill-rule:nonzero;"/>
            </g>
            <g transform="matrix(1.07093,0,0,1,-87.2896,-63.8763)">
                <path d="M450.672,101.053C453.157,101.053 455.385,101.589 457.354,102.66C459.324,103.73 460.872,105.317 462.001,107.418C463.129,109.52 463.693,112.058 463.693,115.033L463.693,134.366L457.211,134.366L457.211,116.044C457.211,113.109 456.503,110.859 455.088,109.292C453.674,107.726 451.742,106.943 449.295,106.943C446.848,106.943 444.907,107.726 443.473,109.292C442.039,110.859 441.322,113.109 441.322,116.044L441.322,134.366L434.84,134.366L434.84,116.044C434.84,113.109 434.132,110.859 432.717,109.292C431.303,107.726 429.371,106.943 426.924,106.943C424.477,106.943 422.536,107.726 421.102,109.292C419.668,110.859 418.951,113.109 418.951,116.044L418.951,134.366L412.411,134.366L412.411,101.589L418.951,101.589L418.951,105.336C420.021,103.988 421.379,102.937 423.023,102.184C424.668,101.43 426.427,101.053 428.301,101.053C430.825,101.053 433.081,101.609 435.069,102.719C437.058,103.829 438.587,105.436 439.658,107.537C440.614,105.555 442.106,103.978 444.132,102.808C446.159,101.638 448.339,101.053 450.672,101.053Z" style="fill:rgb(4,46,62);fill-rule:nonzero;"/>
            </g>
            <g transform="matrix(1.07093,0,0,1,-87.2896,-63.8763)">
                <path d="M498.167,117.174C498.167,118.404 498.091,119.514 497.938,120.505L473.788,120.505C473.98,123.123 474.916,125.225 476.599,126.811C478.282,128.397 480.347,129.19 482.794,129.19C486.312,129.19 488.798,127.664 490.251,124.61L497.307,124.61C496.351,127.624 494.62,130.093 492.115,132.016C489.611,133.939 486.503,134.901 482.794,134.901C479.773,134.901 477.068,134.197 474.677,132.789C472.287,131.382 470.414,129.399 469.056,126.841C467.698,124.283 467.02,121.318 467.02,117.948C467.02,114.577 467.679,111.612 468.999,109.054C470.318,106.496 472.173,104.523 474.563,103.135C476.953,101.747 479.697,101.053 482.794,101.053C485.777,101.053 488.435,101.728 490.767,103.076C493.1,104.424 494.917,106.318 496.217,108.757C497.517,111.196 498.167,114.002 498.167,117.174ZM491.341,115.033C491.303,112.534 490.442,110.532 488.76,109.025C487.077,107.518 484.993,106.764 482.507,106.764C480.251,106.764 478.32,107.508 476.714,108.995C475.108,110.482 474.152,112.495 473.846,115.033L491.341,115.033Z" style="fill:rgb(4,46,62);fill-rule:nonzero;"/>
            </g>
            <g transform="matrix(1.07093,0,0,1,-84.0769,-63.8763)">
                <path d="M302.621,117.829C302.621,114.537 303.281,111.622 304.6,109.084C305.92,106.546 307.717,104.573 309.992,103.165C312.268,101.757 314.801,101.053 317.593,101.053C319.658,101.053 321.694,101.519 323.702,102.451C325.709,103.383 327.306,104.623 328.491,106.169L328.491,90.346L335.088,90.346L335.088,134.366L328.491,134.366L328.491,129.428C327.421,131.015 325.939,132.323 324.046,133.355C322.153,134.386 319.983,134.901 317.535,134.901C314.782,134.901 312.268,134.177 309.992,132.73C307.717,131.282 305.92,129.26 304.6,126.662C303.281,124.065 302.621,121.12 302.621,117.829ZM328.491,117.948C328.491,115.687 328.042,113.724 327.143,112.058C326.245,110.393 325.069,109.124 323.616,108.251C322.163,107.379 320.595,106.943 318.912,106.943C317.229,106.943 315.662,107.369 314.208,108.222C312.755,109.074 311.579,110.323 310.681,111.969C309.782,113.615 309.333,115.568 309.333,117.829C309.333,120.089 309.782,122.072 310.681,123.777C311.579,125.483 312.765,126.781 314.237,127.674C315.709,128.566 317.268,129.012 318.912,129.012C320.595,129.012 322.163,128.576 323.616,127.703C325.069,126.831 326.245,125.552 327.143,123.866C328.042,122.181 328.491,120.208 328.491,117.948Z" style="fill:rgb(4,46,62);fill-rule:nonzero;"/>
            </g>
            <g transform="matrix(1.07093,0,0,1,-84.0769,-63.8763)">
                <path d="M354.132,107.121L348.281,107.121L348.281,134.366L341.685,134.366L341.685,107.121L337.956,107.121L337.956,101.589L341.685,101.589L341.685,99.269C341.685,95.501 342.65,92.755 344.581,91.03C346.513,89.305 349.543,88.442 353.673,88.442L353.673,94.094C351.685,94.094 350.289,94.48 349.486,95.253C348.683,96.027 348.281,97.365 348.281,99.269L348.281,101.589L354.132,101.589L354.132,107.121Z" style="fill:rgb(4,46,62);fill-rule:nonzero;"/>
            </g>
            <g transform="matrix(1.07093,0,0,1,-84.0769,-63.8763)">
                <path d="M363.654,106.348C364.61,104.682 365.882,103.383 367.469,102.451C369.056,101.519 370.939,101.053 373.119,101.053L373.119,108.073L371.455,108.073C368.893,108.073 366.952,108.747 365.633,110.095C364.314,111.444 363.654,113.784 363.654,117.115L363.654,134.366L357.115,134.366L357.115,101.589L363.654,101.589L363.654,106.348Z" style="fill:rgb(4,46,62);fill-rule:nonzero;"/>
            </g>
            <g transform="matrix(1.07093,0,0,1,-85.1478,-63.8763)">
                <path d="M238.606,101.589L228.797,134.366L221.914,134.366L215.547,110.155L209.179,134.366L202.296,134.366L192.43,101.589L199.084,101.589L205.68,127.941L212.392,101.589L219.218,101.589L225.642,127.822L232.181,101.589L238.606,101.589Z" style="fill:rgb(4,46,62);fill-rule:nonzero;"/>
            </g>
            <g transform="matrix(1.07093,0,0,1,-85.1478,-63.8763)">
                <rect x="240.671" y="101.589" width="6.539" height="32.777" style="fill:rgb(4,46,62);fill-rule:nonzero;"/>
            </g>
            <g transform="matrix(1.07093,0,0,1,-85.1478,-63.8763)">
                <path d="M259.543,106.348C260.499,104.682 261.77,103.383 263.357,102.451C264.944,101.519 266.828,101.053 269.008,101.053L269.008,108.073L267.344,108.073C264.782,108.073 262.841,108.747 261.522,110.095C260.203,111.444 259.543,113.784 259.543,117.115L259.543,134.366L253.004,134.366L253.004,101.589L259.543,101.589L259.543,106.348Z" style="fill:rgb(4,46,62);fill-rule:nonzero;"/>
            </g>
            <g transform="matrix(1.07093,0,0,1,-85.1478,-63.8763)">
                <path d="M301.187,117.174C301.187,118.404 301.111,119.514 300.958,120.505L276.809,120.505C277,123.123 277.937,125.225 279.619,126.811C281.302,128.397 283.367,129.19 285.814,129.19C289.333,129.19 291.818,127.664 293.271,124.61L300.327,124.61C299.371,127.624 297.641,130.093 295.136,132.016C292.631,133.939 289.524,134.901 285.814,134.901C282.793,134.901 280.088,134.197 277.698,132.789C275.308,131.382 273.434,129.399 272.076,126.841C270.719,124.283 270.04,121.318 270.04,117.948C270.04,114.577 270.7,111.612 272.019,109.054C273.338,106.496 275.193,104.523 277.583,103.135C279.973,101.747 282.717,101.053 285.814,101.053C288.797,101.053 291.455,101.728 293.788,103.076C296.12,104.424 297.937,106.318 299.237,108.757C300.537,111.196 301.187,114.002 301.187,117.174ZM294.361,115.033C294.323,112.534 293.463,110.532 291.78,109.025C290.097,107.518 288.013,106.764 285.528,106.764C283.271,106.764 281.34,107.508 279.734,108.995C278.128,110.482 277.172,112.495 276.866,115.033L294.361,115.033Z" style="fill:rgb(4,46,62);fill-rule:nonzero;"/>
            </g>
        </g>
    </g>
</svg>
