<?xml version="1.0" encoding="UTF-8" standalone="no"?>
<!DOCTYPE svg PUBLIC "-//W3C//DTD SVG 1.1//EN" "http://www.w3.org/Graphics/SVG/1.1/DTD/svg11.dtd">
<svg width="100%" height="100%" viewBox="0 0 417 96" version="1.1" xmlns="http://www.w3.org/2000/svg" xmlns:xlink="http://www.w3.org/1999/xlink" xml:space="preserve" xmlns:serif="http://www.serif.com/" style="fill-rule:evenodd;clip-rule:evenodd;stroke-linejoin:round;stroke-miterlimit:2;">
    <g id="Logo" transform="matrix(0.933769,0,0,1,0,0)">
        <rect x="0" y="0" width="446.396" height="95.591" style="fill:none;"/>
        <clipPath id="_clip1">
            <rect x="0" y="0" width="446.396" height="95.591"/>
        </clipPath>
        <g clip-path="url(#_clip1)">
            <g transform="matrix(1.12559,0,0,1.05104,-63.1796,-72.8801)">
                <path d="M174.172,136.659L164.593,106.797L171.017,106.797L178.302,132.317L176.524,132.673L183.522,106.797L188.512,106.797L195.453,131.96L194.019,131.96L201.304,106.797L207.499,106.797L197.862,136.659L192.183,136.659L185.357,113.281L186.447,113.816L179.851,136.659L174.172,136.659Z" style="fill:rgb(4,46,62);fill-rule:nonzero;"/>
                <path d="M211.916,136.659L211.916,106.975L217.939,106.975L217.996,136.659L211.916,136.659Z" style="fill:rgb(4,46,62);fill-rule:nonzero;"/>
                <g transform="matrix(-0.951441,0,0,0.951441,270.414,61.4451)">
                    <path d="M51.461,36.274C51.319,35.23 51.253,34.062 51.235,32.865C52.98,32.936 54.755,33.091 56.257,33.388C61.299,34.364 61.182,38.197 61.26,38.775C61.401,39.819 61.468,40.987 61.484,42.184C59.74,42.113 57.966,41.96 56.464,41.661C51.422,40.685 51.539,36.852 51.461,36.274" style="fill:rgb(63,243,144);"/>
                </g>
                <path d="M224.937,136.659L224.937,109.533C225.434,109.216 226.352,108.78 227.69,108.225C229.029,107.669 230.616,107.183 232.451,106.767C234.287,106.351 236.142,106.142 238.015,106.142C238.971,106.142 239.755,106.222 240.367,106.38C240.979,106.539 241.495,106.718 241.916,106.916L241.916,111.913C241.036,111.794 240.119,111.704 239.163,111.645C238.207,111.585 237.251,111.585 236.295,111.645C235.338,111.704 234.402,111.794 233.484,111.913C232.566,112.032 231.725,112.151 230.96,112.27L230.96,136.659L224.937,136.659Z" style="fill:rgb(4,46,62);fill-rule:nonzero;"/>
                <path d="M256.828,137.551C253.998,137.551 251.541,136.956 249.457,135.767C247.373,134.577 245.767,132.812 244.638,130.472C243.51,128.133 242.946,125.277 242.946,121.906C242.946,116.711 244.122,112.775 246.474,110.098C248.826,107.421 252.105,106.083 256.312,106.083C259.409,106.083 261.914,106.797 263.826,108.225C265.738,109.652 267.124,111.645 267.985,114.203C268.845,116.761 269.256,119.745 269.218,123.156L246.56,123.156L246.388,118.516L264.629,118.516L263.195,120.003C263.08,116.949 262.468,114.718 261.359,113.311C260.25,111.903 258.51,111.199 256.139,111.199C254.61,111.199 253.31,111.526 252.239,112.18C251.168,112.835 250.356,113.945 249.801,115.512C249.247,117.078 248.969,119.229 248.969,121.966C248.969,125.297 249.715,127.825 251.206,129.55C252.698,131.275 254.897,132.138 257.803,132.138C259.103,132.138 260.317,132.019 261.445,131.781C262.574,131.543 263.616,131.236 264.572,130.859C265.528,130.482 266.35,130.116 267.038,129.759L267.038,135.529C265.7,136.124 264.189,136.609 262.507,136.986C260.824,137.363 258.931,137.551 256.828,137.551Z" style="fill:rgb(4,46,62);fill-rule:nonzero;"/>
                <path d="M287.172,137.551C285.413,137.551 283.692,137.323 282.01,136.867C280.327,136.411 278.797,135.598 277.421,134.428C276.044,133.258 274.954,131.623 274.151,129.521C273.348,127.419 272.946,124.702 272.946,121.371C272.946,116.652 274.055,112.924 276.273,110.188C278.491,107.451 281.857,106.083 286.369,106.083C287.096,106.083 287.994,106.182 289.065,106.38C290.136,106.579 291.226,106.866 292.335,107.243C293.444,107.62 294.381,108.106 295.145,108.7L293.597,110.782L293.597,94.305L299.562,94.305L299.562,130.413C299.562,131.642 299.189,132.713 298.444,133.625C297.698,134.537 296.713,135.281 295.49,135.856C294.266,136.431 292.927,136.857 291.474,137.135C290.021,137.413 288.587,137.551 287.172,137.551ZM287.344,132.138C289.065,132.138 290.537,131.92 291.761,131.484C292.985,131.047 293.597,130.472 293.597,129.759L293.597,113.162C292.602,112.567 291.551,112.131 290.442,111.853C289.333,111.576 288.262,111.437 287.229,111.437C285.356,111.437 283.816,111.823 282.612,112.597C281.407,113.37 280.518,114.5 279.945,115.987C279.371,117.475 279.084,119.309 279.084,121.49C279.084,123.473 279.314,125.267 279.772,126.874C280.231,128.48 281.063,129.759 282.268,130.71C283.472,131.662 285.164,132.138 287.344,132.138Z" style="fill:rgb(4,46,62);fill-rule:nonzero;"/>
                <path d="M308.74,136.659L308.74,111.972L304.151,111.972L304.151,106.797L308.797,106.797L308.797,105.607C308.797,103.505 309.017,101.76 309.457,100.372C309.897,98.984 310.48,97.874 311.207,97.041C311.933,96.208 312.736,95.584 313.616,95.167C314.495,94.751 315.384,94.483 316.283,94.364C317.182,94.245 318.033,94.186 318.836,94.186C319.409,94.186 319.983,94.225 320.557,94.305C321.13,94.384 321.627,94.483 322.048,94.602L322.048,100.134C321.704,99.936 321.35,99.768 320.987,99.629C320.623,99.49 320.155,99.421 319.581,99.421C319.008,99.421 318.434,99.47 317.861,99.569C317.287,99.668 316.771,99.906 316.312,100.283C315.853,100.66 315.49,101.225 315.222,101.978C314.954,102.732 314.82,103.763 314.82,105.072L314.82,106.797L322.048,106.797L322.048,111.972L314.763,111.972L314.763,136.659L308.74,136.659Z" style="fill:rgb(4,46,62);fill-rule:nonzero;"/>
                <path d="M326.579,136.659L326.579,109.533C327.077,109.216 327.994,108.78 329.333,108.225C330.671,107.669 332.258,107.183 334.094,106.767C335.929,106.351 337.784,106.142 339.658,106.142C340.614,106.142 341.398,106.222 342.01,106.38C342.622,106.539 343.138,106.718 343.559,106.916L343.559,111.913C342.679,111.794 341.761,111.704 340.805,111.645C339.849,111.585 338.893,111.585 337.937,111.645C336.981,111.704 336.044,111.794 335.126,111.913C334.209,112.032 333.367,112.151 332.602,112.27L332.602,136.659L326.579,136.659Z" style="fill:rgb(4,46,62);fill-rule:nonzero;"/>
                <path d="M358.186,137.551C356.694,137.551 355.26,137.403 353.884,137.105C352.507,136.808 351.255,136.302 350.126,135.588C348.998,134.874 348.1,133.893 347.43,132.644C346.761,131.394 346.427,129.838 346.427,127.974C346.427,125.753 346.847,123.929 347.689,122.501C348.53,121.074 349.734,120.003 351.302,119.289C352.87,118.575 354.744,118.218 356.924,118.218C358.377,118.218 359.687,118.337 360.853,118.575C362.019,118.813 363.071,119.14 364.008,119.557C364.945,119.973 365.738,120.439 366.388,120.955L367.019,125.059C366.178,124.464 365.05,123.959 363.635,123.542C362.22,123.126 360.691,122.918 359.046,122.918C356.866,122.918 355.212,123.314 354.084,124.107C352.956,124.901 352.392,126.09 352.392,127.677C352.392,128.866 352.717,129.828 353.367,130.562C354.017,131.295 354.83,131.831 355.805,132.168C356.78,132.505 357.803,132.673 358.874,132.673C361.13,132.673 362.794,132.515 363.865,132.198C364.935,131.88 365.471,131.147 365.471,129.997L365.471,117.504C365.471,115.403 364.859,113.866 363.635,112.894C362.411,111.923 360.671,111.437 358.415,111.437C356.809,111.437 355.146,111.704 353.425,112.24C351.704,112.775 350.289,113.519 349.18,114.471L349.18,108.641C350.251,107.887 351.809,107.283 353.855,106.827C355.901,106.371 358.014,106.142 360.193,106.142C361.264,106.142 362.344,106.252 363.434,106.47C364.524,106.688 365.547,107.025 366.503,107.481C367.459,107.937 368.31,108.552 369.056,109.325C369.801,110.098 370.385,111.04 370.805,112.151C371.226,113.261 371.436,114.57 371.436,116.077L371.436,130.353C371.436,132.297 370.853,133.794 369.687,134.845C368.52,135.896 366.943,136.609 364.954,136.986C362.966,137.363 360.71,137.551 358.186,137.551Z" style="fill:rgb(4,46,62);fill-rule:nonzero;"/>
                <path d="M403.157,116.91L403.157,136.659L397.134,136.659L397.134,117.742C397.134,116.989 397.048,116.245 396.876,115.512C396.704,114.778 396.379,114.104 395.901,113.489C395.423,112.874 394.735,112.389 393.836,112.032C392.937,111.675 391.761,111.496 390.308,111.496C389.276,111.496 388.243,111.595 387.211,111.794C386.178,111.992 385.184,112.27 384.228,112.627L384.228,136.659L378.205,136.659L378.205,109.236C379.046,108.8 379.993,108.393 381.044,108.016C382.096,107.64 383.214,107.312 384.4,107.035C385.585,106.757 386.79,106.539 388.014,106.38C389.237,106.222 390.423,106.142 391.57,106.142C394.285,106.142 396.484,106.529 398.167,107.302C399.849,108.076 401.102,109.266 401.924,110.872C402.746,112.478 403.157,114.49 403.157,116.91ZM396.274,110.782C397.498,109.751 398.846,108.899 400.318,108.225C401.79,107.55 403.32,107.035 404.907,106.678C406.494,106.321 408.052,106.142 409.582,106.142C412.297,106.142 414.496,106.529 416.178,107.302C417.861,108.076 419.113,109.266 419.935,110.872C420.758,112.478 421.169,114.49 421.169,116.91L421.169,136.659L415.146,136.659L415.146,117.742C415.146,116.989 415.06,116.245 414.888,115.512C414.716,114.778 414.391,114.104 413.912,113.489C413.434,112.874 412.746,112.389 411.847,112.032C410.949,111.675 409.773,111.496 408.32,111.496C407.287,111.496 406.255,111.655 405.222,111.972C404.19,112.289 403.195,112.785 402.239,113.459L396.274,110.782Z" style="fill:rgb(4,46,62);fill-rule:nonzero;"/>
                <path d="M440.328,137.551C437.498,137.551 435.041,136.956 432.957,135.767C430.872,134.577 429.266,132.812 428.138,130.472C427.01,128.133 426.446,125.277 426.446,121.906C426.446,116.711 427.622,112.775 429.974,110.098C432.326,107.421 435.605,106.083 439.811,106.083C442.909,106.083 445.414,106.797 447.326,108.225C449.238,109.652 450.624,111.645 451.484,114.203C452.345,116.761 452.756,119.745 452.718,123.156L430.06,123.156L429.888,118.516L448.129,118.516L446.695,120.003C446.58,116.949 445.968,114.718 444.859,113.311C443.75,111.903 442.01,111.199 439.639,111.199C438.11,111.199 436.809,111.526 435.739,112.18C434.668,112.835 433.855,113.945 433.301,115.512C432.746,117.078 432.469,119.229 432.469,121.966C432.469,125.297 433.215,127.825 434.706,129.55C436.197,131.275 438.396,132.138 441.303,132.138C442.603,132.138 443.817,132.019 444.945,131.781C446.073,131.543 447.115,131.236 448.071,130.859C449.027,130.482 449.85,130.116 450.538,129.759L450.538,135.529C449.199,136.124 447.689,136.609 446.006,136.986C444.324,137.363 442.431,137.551 440.328,137.551Z" style="fill:rgb(4,46,62);fill-rule:nonzero;"/>
            </g>
            <g transform="matrix(1.07093,0,0,1,0,-0.0306118)">
                <g>
                    <g>
                        <clipPath id="_clip2">
                            <rect x="0.604" y="0.409" width="95.591" height="95.591"/>
                        </clipPath>
                        <g clip-path="url(#_clip2)">
                            <path d="M18.633,18.416C23.741,13.309 29.299,8.242 34.478,4.535C39.532,0.918 46.52,-0.325 52.291,0.822C55.821,1.354 59.307,2.648 62.172,4.703C67.33,8.4 72.861,13.44 77.954,18.527C77.976,18.548 77.995,18.568 78.015,18.589C78.036,18.608 78.056,18.628 78.075,18.649C83.163,23.741 88.204,29.274 91.899,34.43C93.955,37.297 95.25,40.782 95.782,44.313C96.927,50.084 95.684,57.071 92.068,62.126C88.362,67.305 83.295,72.863 78.187,77.97C78.184,77.974 78.178,77.977 78.175,77.981C78.171,77.985 78.168,77.988 78.164,77.993C73.056,83.101 67.499,88.168 62.32,91.874C57.265,95.49 50.278,96.733 44.507,95.588C40.976,95.056 37.491,93.76 34.625,91.705C29.468,88.01 23.937,82.97 18.843,77.881C18.822,77.862 18.802,77.84 18.783,77.821C18.761,77.801 18.742,77.78 18.721,77.76L18.722,77.76C13.634,72.667 8.594,67.136 4.898,61.978C2.842,59.111 1.548,55.627 1.016,52.095C-0.131,46.326 1.114,39.337 4.729,34.284C8.436,29.103 13.503,23.546 18.61,18.44L18.633,18.416" style="fill:rgb(230,239,238);"/>
                        </g>
                    </g>
                </g>
            </g>
            <g transform="matrix(1.07093,0,0,1,0,-0.0306118)">
                <path d="M55.619,13.761C50.763,14.23 45.136,15.457 39.794,16.882C39.788,16.882 39.785,16.884 39.781,16.885C39.778,16.885 39.772,16.887 39.769,16.887C34.426,18.312 28.936,20.049 24.495,22.057C10.952,28.106 13.848,38.768 14.013,40.441C14.493,45.264 15.724,50.852 17.152,56.166L17.15,56.166C17.157,56.188 17.163,56.209 17.168,56.23C17.173,56.252 17.179,56.273 17.186,56.294C18.619,61.607 20.362,67.058 22.372,71.474C23.067,73.007 25.918,83.679 40.686,82.18C45.542,81.709 51.169,80.483 56.511,79.059C56.517,79.057 56.52,79.057 56.524,79.055C56.527,79.054 56.533,79.054 56.536,79.052C61.879,77.629 67.369,75.891 71.81,73.882C85.353,67.835 82.457,57.173 82.292,55.5C81.81,50.675 80.581,45.088 79.153,39.772C79.148,39.751 79.142,39.732 79.137,39.71C79.132,39.689 79.125,39.668 79.119,39.646C77.686,34.334 75.943,28.883 73.933,24.465C73.238,22.934 70.387,12.26 55.619,13.761" style="fill:rgb(4,46,62);"/>
            </g>
            <g transform="matrix(1.07093,0,0,1,0,-0.0306118)">
                <path d="M57.969,27.901C54.889,27.387 51.206,27.211 47.666,27.206L47.65,27.206C44.111,27.199 40.428,27.361 37.35,27.862C27.975,29.345 28.002,36.39 27.829,37.448C27.33,40.498 27.166,44.142 27.17,47.651L27.17,47.735C27.178,51.244 27.356,54.888 27.868,57.94C28.046,58.998 28.045,66.042 37.424,67.561C40.506,68.073 44.188,68.249 47.729,68.256L47.745,68.256C51.284,68.264 54.965,68.102 58.044,67.598C67.42,66.115 67.391,59.071 67.566,58.014C68.066,54.964 68.229,51.32 68.224,47.811L68.224,47.728C68.215,44.219 68.039,40.575 67.527,37.523C67.349,36.465 67.351,29.42 57.969,27.901" style="fill:rgb(63,243,144);"/>
            </g>
            <g transform="matrix(1.07093,0,0,1,0,-0.0306118)">
                <path d="M51.461,36.274C51.319,35.23 51.253,34.062 51.235,32.865C52.98,32.936 54.755,33.091 56.257,33.388C61.299,34.364 61.182,38.197 61.26,38.775C61.401,39.819 61.468,40.987 61.484,42.184C59.74,42.113 57.966,41.96 56.464,41.661C51.422,40.685 51.539,36.852 51.461,36.274" style="fill:rgb(4,46,62);"/>
            </g>
        </g>
    </g>
</svg>
