<?xml version="1.0" encoding="UTF-8" standalone="no"?><!DOCTYPE svg PUBLIC "-//W3C//DTD SVG 1.1//EN" "http://www.w3.org/Graphics/SVG/1.1/DTD/svg11.dtd"><svg width="100%" height="100%" viewBox="0 0 447 96" version="1.1" xmlns="http://www.w3.org/2000/svg" xmlns:xlink="http://www.w3.org/1999/xlink" xml:space="preserve" style="fill-rule:evenodd;clip-rule:evenodd;stroke-linejoin:round;stroke-miterlimit:1.41421;"><g><path d="M162.36,21.99l-8.386,25.513l-7.676,-25.513l-4.531,0l-7.569,25.489l-8.413,-25.489l-4.994,0l10.958,32.934l4.572,0l7.642,-25.035l7.633,25.035l4.573,0l10.959,-32.934l-4.768,0Z" style="fill:#0093a7;fill-rule:nonzero;"/><path d="M175.28,54.923l4.77,0l0,-32.932l-4.77,0l0,32.932Zm-0.258,-44.017l5.286,0l0,5.283l-5.286,0l0,-5.283Z" style="fill:#0093a7;fill-rule:nonzero;"/><path d="M189.588,54.923l0,-30.336c4.962,-2.075 10.291,-3.112 15.984,-3.112l0,4.478c-3.6,0.087 -7.337,0.658 -11.214,1.713l0,27.257l-4.77,0Z" style="fill:#0093a7;fill-rule:nonzero;"/><path d="M214.981,37.039l19.301,0c0,-0.753 -0.09,-1.59 -0.274,-2.513c-0.183,-0.925 -0.549,-2.111 -1.097,-3.562c-0.549,-1.45 -1.538,-2.658 -2.97,-3.625c-1.432,-0.966 -3.201,-1.449 -5.31,-1.449c-3.269,0 -5.644,0.848 -7.118,2.545c-1.472,1.698 -2.317,4.565 -2.532,8.604m-4.77,1.837l0,-0.226l0,-0.258c0,-11.322 4.807,-16.982 14.42,-16.982c2.007,0 3.83,0.318 5.465,0.951c1.632,0.633 2.931,1.38 3.893,2.239c0.96,0.859 1.805,1.981 2.531,3.367c0.727,1.387 1.245,2.563 1.554,3.53c0.309,0.966 0.55,2.136 0.72,3.511c0.173,1.332 0.258,2.171 0.258,2.515l0,1.417l-0.126,2.319l-23.945,0c0.3,3.31 1.312,5.711 3.034,7.203c1.721,1.494 4.27,2.239 7.649,2.239c4.773,0 8.531,-0.816 11.272,-2.449l0,4.898c-3.169,1.526 -7.013,2.289 -11.53,2.289l-0.194,0c-1.928,0 -3.694,-0.231 -5.3,-0.694c-1.606,-0.46 -3.185,-1.261 -4.738,-2.401c-1.552,-1.138 -2.769,-2.851 -3.645,-5.139c-0.879,-2.288 -1.318,-5.064 -1.318,-8.329" style="fill:#0093a7;fill-rule:nonzero;"/><path d="M250.523,38.037c0,2.771 0.3,5.092 0.901,6.961c0.6,1.87 1.425,3.212 2.476,4.027c1.051,0.818 2.06,1.366 3.024,1.645c0.965,0.279 2.07,0.418 3.313,0.418c5.833,0 8.75,-1.933 8.75,-5.8l0,-17.82c-2.68,-1.096 -5.405,-1.643 -8.17,-1.643c-3.604,0 -6.22,0.967 -7.851,2.9c-1.629,1.934 -2.443,5.039 -2.443,9.312m-4.77,0c0,-3.265 0.441,-6.041 1.323,-8.33c0.882,-2.287 2.102,-4 3.66,-5.14c1.56,-1.138 3.146,-1.937 4.758,-2.399c1.613,-0.462 3.388,-0.694 5.323,-0.694c2.895,0 5.618,0.42 8.17,1.258l0,-13.276l4.77,0l0,35.638c0,0.881 -0.13,1.784 -0.388,2.707c-0.258,0.923 -0.797,2.026 -1.613,3.303c-0.818,1.279 -2.216,2.321 -4.195,3.126c-1.978,0.806 -4.42,1.208 -7.324,1.208c-1.226,0 -2.424,-0.109 -3.596,-0.322c-1.172,-0.215 -2.442,-0.697 -3.808,-1.449c-1.364,-0.753 -2.541,-1.731 -3.53,-2.933c-0.991,-1.202 -1.83,-2.895 -2.517,-5.076c-0.688,-2.18 -1.033,-4.72 -1.033,-7.621" style="fill:#0093a7;fill-rule:nonzero;"/><path d="M281.296,26.34l0,-4.35l5.672,0l0,-1.773c0,-2.276 0.295,-4.231 0.886,-5.864c0.59,-1.632 1.262,-2.836 2.015,-3.61c0.75,-0.772 1.712,-1.38 2.883,-1.819c1.17,-0.441 2.063,-0.683 2.674,-0.726c0.612,-0.042 1.338,-0.064 2.175,-0.064c1.181,0 2.234,0.128 3.159,0.386l0,4.222c-0.882,-0.172 -1.675,-0.258 -2.385,-0.258c-1.053,0 -1.853,0.043 -2.401,0.128c-0.548,0.088 -1.207,0.351 -1.981,0.79c-0.774,0.441 -1.343,1.225 -1.709,2.353c-0.365,1.127 -0.548,2.593 -0.548,4.398l0,1.837l9.024,0l0,4.35l-9.024,0l0,28.582l-4.768,0l0,-28.582l-5.672,0Z" style="fill:#0093a7;fill-rule:nonzero;"/><path d="M306.076,54.923l0,-30.336c4.962,-2.075 10.291,-3.112 15.984,-3.112l0,4.478c-3.6,0.087 -7.337,0.658 -11.214,1.713l0,27.257l-4.77,0Z" style="fill:#0093a7;fill-rule:nonzero;"/><path d="M331.178,44.804c0,4.103 2.981,6.156 8.943,6.156l0.096,0c5.833,0 8.748,-1.989 8.748,-5.964l0,-6.315c-1.457,-0.258 -3.408,-0.386 -5.853,-0.386c-7.955,0 -11.934,2.17 -11.934,6.509m-4.769,0c0,-1.479 0.275,-2.806 0.821,-3.98c0.548,-1.174 1.22,-2.125 2.015,-2.854c0.795,-0.73 1.805,-1.354 3.029,-1.871c1.224,-0.52 2.31,-0.9 3.255,-1.142c0.946,-0.244 2.066,-0.429 3.368,-0.557c1.298,-0.126 2.221,-0.201 2.771,-0.222c0.548,-0.021 1.197,-0.032 1.949,-0.032l5.286,0.315c0,-2.99 -0.811,-5.122 -2.43,-6.399c-1.62,-1.277 -4.015,-1.916 -7.188,-1.916c-3.566,0 -6.774,0.527 -9.631,1.58l0,-4.608c3.241,-1.139 6.538,-1.708 9.887,-1.708c4.615,0 8.133,1.165 10.557,3.497c2.426,2.331 3.637,5.741 3.637,10.23l0,9.893c0,2.106 -0.489,3.904 -1.464,5.398c-0.976,1.494 -2.232,2.573 -3.765,3.238c-1.536,0.666 -2.973,1.128 -4.314,1.386c-1.341,0.258 -2.666,0.386 -3.975,0.386c-1.012,0 -2.047,-0.064 -3.114,-0.194c-1.064,-0.128 -2.27,-0.425 -3.613,-0.888c-1.344,-0.464 -2.511,-1.056 -3.5,-1.778c-0.988,-0.722 -1.833,-1.757 -2.532,-3.103c-0.699,-1.347 -1.049,-2.903 -1.049,-4.671" style="fill:#0093a7;fill-rule:nonzero;"/><path d="M362.693,54.923l0,-30.355c4.237,-2.106 8.635,-3.157 13.195,-3.157c3.605,0 6.502,0.902 8.691,2.707c4.235,-1.805 8.309,-2.707 12.222,-2.707c4.001,0 7.103,1.051 9.308,3.157c2.206,2.105 3.308,5.07 3.308,8.894l0,21.461l-4.77,0l0,-21.461c0,-0.923 -0.085,-1.745 -0.256,-2.465c-0.172,-0.721 -0.521,-1.489 -1.045,-2.305c-0.527,-0.816 -1.373,-1.444 -2.54,-1.885c-1.17,-0.44 -2.611,-0.66 -4.327,-0.66c-2.767,0 -5.805,0.548 -9.109,1.643c0.713,1.59 1.07,3.481 1.07,5.672l0,21.461l-4.77,0l0,-21.461c0,-0.968 -0.09,-1.809 -0.273,-2.529c-0.182,-0.721 -0.536,-1.478 -1.06,-2.273c-0.527,-0.793 -1.389,-1.412 -2.59,-1.853c-1.2,-0.44 -2.68,-0.66 -4.437,-0.66c-2.68,0 -5.296,0.398 -7.849,1.191l0,27.585l-4.768,0Z" style="fill:#0093a7;fill-rule:nonzero;"/><path d="M422.532,37.039l19.302,0c0,-0.753 -0.091,-1.59 -0.274,-2.513c-0.183,-0.925 -0.549,-2.111 -1.097,-3.562c-0.55,-1.45 -1.538,-2.658 -2.97,-3.625c-1.43,-0.966 -3.201,-1.449 -5.309,-1.449c-3.27,0 -5.645,0.848 -7.119,2.545c-1.473,1.698 -2.317,4.565 -2.533,8.604m-4.768,1.837l0,-0.226l0,-0.258c0,-11.322 4.806,-16.982 14.42,-16.982c2.008,0 3.829,0.318 5.464,0.951c1.632,0.633 2.931,1.38 3.893,2.239c0.96,0.859 1.805,1.981 2.53,3.367c0.728,1.387 1.245,2.563 1.555,3.53c0.309,0.966 0.549,2.136 0.72,3.511c0.171,1.332 0.258,2.171 0.258,2.515l0,1.417l-0.126,2.319l-23.946,0c0.301,3.31 1.313,5.711 3.034,7.203c1.722,1.494 4.272,2.239 7.65,2.239c4.773,0 8.531,-0.816 11.272,-2.449l0,4.898c-3.17,1.526 -7.013,2.289 -11.53,2.289l-0.194,0c-1.928,0 -3.694,-0.231 -5.3,-0.694c-1.606,-0.46 -3.185,-1.261 -4.738,-2.401c-1.554,-1.138 -2.767,-2.851 -3.646,-5.139c-0.878,-2.288 -1.316,-5.064 -1.316,-8.329" style="fill:#0093a7;fill-rule:nonzero;"/><path d="M140.772,79.061c0,2.285 -1.757,3.925 -5.156,3.925c-1.874,0 -3.338,-0.468 -4.451,-1.026l0,-1.523c1.289,0.674 2.781,1.114 4.393,1.114c2.168,0 3.751,-0.82 3.751,-2.49c0,-4.247 -8.057,-1.816 -8.057,-6.824c0,-2.022 1.377,-3.955 4.834,-3.955c1.522,0 2.812,0.41 3.838,0.85l0,1.435c-0.909,-0.439 -2.168,-0.88 -3.692,-0.88c-1.875,0 -3.514,0.704 -3.514,2.55c0,3.455 8.054,1.316 8.054,6.824" style="fill:#7a9099;fill-rule:nonzero;"/><path d="M150.524,81.58c1.348,0 2.725,-0.263 3.984,-0.761l0,1.405c-1.318,0.498 -2.725,0.761 -4.13,0.761c-3.018,0 -6.649,-1.228 -6.649,-7.352c0,-6.091 3.631,-7.352 6.649,-7.352c1.405,0 2.812,0.293 4.13,0.763l0,1.405c-1.259,-0.468 -2.636,-0.761 -3.984,-0.761c-3.222,0 -5.36,1.494 -5.36,5.945c0,4.482 2.138,5.947 5.36,5.947" style="fill:#7a9099;fill-rule:nonzero;"/><path d="M159.133,70.596l0,12.155l-1.435,0l0,-13.093c0.82,-0.352 3.427,-1.318 6.678,-1.348l0,1.407c-2.226,0.059 -4.129,0.557 -5.243,0.879" style="fill:#7a9099;fill-rule:nonzero;"/><path d="M167.656,75.194l9.461,0c0,-0.704 -0.176,-5.507 -4.716,-5.507c-3.075,0 -4.599,2.05 -4.745,5.507m10.955,0.527c0,0.645 -0.028,0.733 -0.028,0.763l-10.927,0c0.028,0.498 0.117,0.907 0.263,1.259c0.411,2.753 2.344,3.808 5.097,3.808c1.729,0 3.458,-0.352 4.628,-0.996l0,1.494c-1.318,0.615 -3.134,0.907 -4.745,0.907c-3.221,0 -6.737,-1.375 -6.737,-7.031c0,-2.253 0.703,-7.615 6.328,-7.615c6.063,0 6.121,6.474 6.121,7.411" style="fill:#7a9099;fill-rule:nonzero;"/><path d="M183.265,75.194l9.462,0c0,-0.704 -0.176,-5.507 -4.717,-5.507c-3.075,0 -4.599,2.05 -4.745,5.507m10.956,0.527c0,0.645 -0.029,0.733 -0.029,0.763l-10.927,0c0.029,0.498 0.118,0.907 0.264,1.259c0.41,2.753 2.344,3.808 5.097,3.808c1.728,0 3.455,-0.352 4.627,-0.996l0,1.494c-1.317,0.615 -3.133,0.907 -4.745,0.907c-3.22,0 -6.736,-1.375 -6.736,-7.031c0,-2.253 0.702,-7.615 6.327,-7.615c6.063,0 6.122,6.474 6.122,7.411" style="fill:#7a9099;fill-rule:nonzero;"/><path d="M209.361,73.495l0,9.257l-1.463,0l0,-9.257c0,-2.079 -0.881,-3.749 -4.19,-3.749c-1.727,0 -3.31,0.44 -4.511,0.907l0,12.099l-1.435,0l0,-12.947c0.996,-0.528 3.34,-1.524 6.093,-1.524c3.486,0 5.506,1.759 5.506,5.214" style="fill:#7a9099;fill-rule:nonzero;"/><path d="M219.524,81.639c3.163,0 4.247,-1.524 4.247,-3.018l0,-8.172c-1.201,-0.498 -2.606,-0.792 -4.041,-0.792c-3.105,0 -5.039,1.494 -5.039,5.86c0,5.448 2.812,6.122 4.833,6.122m0.206,-13.328c1.435,0 2.812,0.235 4.041,0.674l0,-5.917l1.435,0l0,15.494c0,1.085 -0.498,4.423 -5.682,4.423c-2.403,0 -6.298,-0.965 -6.298,-7.468c0,-5.947 3.456,-7.206 6.504,-7.206" style="fill:#7a9099;fill-rule:nonzero;"/><path d="M230.446,75.194l9.461,0c0,-0.704 -0.176,-5.507 -4.716,-5.507c-3.075,0 -4.599,2.05 -4.745,5.507m10.955,0.527c0,0.645 -0.03,0.733 -0.03,0.763l-10.925,0c0.028,0.498 0.117,0.907 0.263,1.259c0.411,2.753 2.344,3.808 5.097,3.808c1.729,0 3.458,-0.352 4.628,-0.996l0,1.494c-1.318,0.615 -3.134,0.907 -4.745,0.907c-3.223,0 -6.737,-1.375 -6.737,-7.031c0,-2.253 0.703,-7.615 6.326,-7.615c6.065,0 6.123,6.474 6.123,7.411" style="fill:#7a9099;fill-rule:nonzero;"/><path d="M253.848,79.061c0,2.285 -1.757,3.925 -5.156,3.925c-1.874,0 -3.338,-0.468 -4.451,-1.026l0,-1.523c1.287,0.674 2.781,1.114 4.392,1.114c2.168,0 3.749,-0.82 3.749,-2.49c0,-4.247 -8.054,-1.816 -8.054,-6.824c0,-2.022 1.376,-3.955 4.834,-3.955c1.522,0 2.811,0.41 3.836,0.85l0,1.435c-0.907,-0.439 -2.168,-0.88 -3.691,-0.88c-1.874,0 -3.516,0.704 -3.516,2.55c0,3.455 8.057,1.316 8.057,6.824" style="fill:#7a9099;fill-rule:nonzero;"/><path d="M257.302,68.546l1.436,0l0,14.206l-1.436,0l0,-14.206Zm-0.087,-4.806l1.612,0l0,2.168l-1.612,0l0,-2.168Z" style="fill:#7a9099;fill-rule:nonzero;"/><path d="M272.855,72.529c0,-1.377 -0.996,-2.899 -4.13,-2.899c-1.933,0 -4.686,0.644 -4.686,5.917c0,4.919 2.548,5.623 4.862,5.623c1.377,0 2.695,-0.293 3.954,-0.85l0,-7.791Zm1.435,0.058l0,10.927c0,2.254 -1.024,4.832 -6.152,4.832c-1.581,0 -2.899,-0.204 -3.925,-0.467l0,-1.379c0.939,0.235 2.227,0.47 3.751,0.47c4.217,0 4.891,-1.757 4.891,-3.397l0,-1.787c-1.259,0.467 -2.607,0.732 -3.954,0.732c-2.87,0 -6.328,-1.113 -6.328,-6.971c0,-6.328 3.808,-7.265 6.152,-7.265c5.126,0 5.565,3.309 5.565,4.305" style="fill:#7a9099;fill-rule:nonzero;"/><path d="M290.046,73.495l0,9.257l-1.464,0l0,-9.257c0,-2.079 -0.88,-3.749 -4.19,-3.749c-1.726,0 -3.309,0.44 -4.51,0.907l0,12.099l-1.435,0l0,-12.947c0.996,-0.528 3.34,-1.524 6.093,-1.524c3.486,0 5.506,1.759 5.506,5.214" style="fill:#7a9099;fill-rule:nonzero;"/><g><g><g opacity="0.199997"><clipPath id="_clip1"><rect x="0.604" y="0.409" width="95.591" height="95.591"/></clipPath><g clip-path="url(#_clip1)"><path d="M18.633,18.416c5.108,-5.107 10.666,-10.174 15.845,-13.881c5.054,-3.617 12.042,-4.86 17.813,-3.713c3.53,0.532 7.016,1.826 9.881,3.881c5.158,3.697 10.689,8.737 15.782,13.824c0.022,0.021 0.041,0.041 0.061,0.062c0.021,0.019 0.041,0.039 0.06,0.06c5.088,5.092 10.129,10.625 13.824,15.781c2.056,2.867 3.351,6.352 3.883,9.883c1.145,5.771 -0.098,12.758 -3.714,17.813c-3.706,5.179 -8.773,10.737 -13.881,15.844c-0.003,0.004 -0.009,0.007 -0.012,0.011c-0.004,0.004 -0.007,0.007 -0.011,0.012c-5.108,5.108 -10.665,10.175 -15.844,13.881c-5.055,3.616 -12.042,4.859 -17.813,3.714c-3.531,-0.532 -7.016,-1.828 -9.882,-3.883c-5.157,-3.695 -10.688,-8.735 -15.782,-13.824c-0.021,-0.019 -0.041,-0.041 -0.06,-0.06c-0.022,-0.02 -0.041,-0.041 -0.062,-0.061l0.001,0c-5.088,-5.093 -10.128,-10.624 -13.824,-15.782c-2.056,-2.867 -3.35,-6.351 -3.882,-9.883c-1.147,-5.769 0.098,-12.758 3.713,-17.811c3.707,-5.181 8.774,-10.738 13.881,-15.844l0.023,-0.024" style="fill:#7a9099;"/></g></g></g><path d="M55.619,13.761c-4.856,0.469 -10.483,1.696 -15.825,3.121c-0.006,0 -0.009,0.002 -0.013,0.003c-0.003,0 -0.009,0.002 -0.012,0.002c-5.343,1.425 -10.833,3.162 -15.274,5.17c-13.543,6.049 -10.647,16.711 -10.482,18.384c0.48,4.823 1.711,10.411 3.139,15.725l-0.002,0c0.007,0.022 0.013,0.043 0.018,0.064c0.005,0.022 0.011,0.043 0.018,0.064c1.433,5.313 3.176,10.764 5.186,15.18c0.695,1.533 3.546,12.205 18.314,10.706c4.856,-0.471 10.483,-1.697 15.825,-3.121c0.006,-0.002 0.009,-0.002 0.013,-0.004c0.003,-0.001 0.009,-0.001 0.012,-0.003c5.343,-1.423 10.833,-3.161 15.274,-5.17c13.543,-6.047 10.647,-16.709 10.482,-18.382c-0.482,-4.825 -1.711,-10.412 -3.139,-15.728c-0.005,-0.021 -0.011,-0.04 -0.016,-0.062c-0.005,-0.021 -0.012,-0.042 -0.018,-0.064c-1.433,-5.312 -3.176,-10.763 -5.186,-15.181c-0.695,-1.531 -3.546,-12.205 -18.314,-10.704" style="fill:#0093a7;"/><path d="M57.969,27.901c-3.08,-0.514 -6.763,-0.69 -10.303,-0.695l-0.008,0l-0.008,0c-3.539,-0.007 -7.222,0.155 -10.3,0.656c-9.375,1.483 -9.348,8.528 -9.521,9.586c-0.499,3.05 -0.663,6.694 -0.659,10.203l0,0.084c0.008,3.509 0.186,7.153 0.698,10.205c0.178,1.058 0.177,8.102 9.556,9.621c3.082,0.512 6.764,0.688 10.305,0.695l0.016,0c3.539,0.008 7.22,-0.154 10.299,-0.658c9.376,-1.483 9.347,-8.527 9.522,-9.584c0.5,-3.05 0.663,-6.694 0.658,-10.203l0,-0.083c-0.009,-3.509 -0.185,-7.153 -0.697,-10.205c-0.178,-1.058 -0.176,-8.103 -9.558,-9.622" style="fill:#fff;"/><path d="M51.461,36.274c-0.142,-1.044 -0.208,-2.212 -0.226,-3.409c1.745,0.071 3.52,0.226 5.022,0.523c5.042,0.976 4.925,4.809 5.003,5.387c0.141,1.044 0.208,2.212 0.224,3.409c-1.744,-0.071 -3.518,-0.224 -5.02,-0.523c-5.042,-0.976 -4.925,-4.809 -5.003,-5.387" style="fill:#0093a7;"/></g></g></svg>