<?xml version="1.0" encoding="UTF-8" standalone="no"?>
<!DOCTYPE svg PUBLIC "-//W3C//DTD SVG 1.1//EN" "http://www.w3.org/Graphics/SVG/1.1/DTD/svg11.dtd">
<svg width="100%" height="100%" viewBox="0 0 417 96" version="1.1" xmlns="http://www.w3.org/2000/svg" xmlns:xlink="http://www.w3.org/1999/xlink" xml:space="preserve" xmlns:serif="http://www.serif.com/" style="fill-rule:evenodd;clip-rule:evenodd;stroke-linejoin:round;stroke-miterlimit:2;">
    <g id="Logo" transform="matrix(0.933769,0,0,1,0,0)">
        <rect x="0" y="0" width="446.396" height="95.591" style="fill:none;"/>
        <clipPath id="_clip1">
            <rect x="0" y="0" width="446.396" height="95.591"/>
        </clipPath>
        <g clip-path="url(#_clip1)">
            <g transform="matrix(1.07093,0,0,1,4.145,-87.1686)">
                <path d="M121.776,158.075C121.164,158.075 120.6,157.886 120.084,157.509C119.567,157.133 119.214,156.667 119.023,156.112L110.533,129.7C110.227,128.47 110.237,127.469 110.562,126.695C110.887,125.922 111.604,125.536 112.713,125.536C113.439,125.536 114.042,125.744 114.52,126.16C114.998,126.577 115.39,127.28 115.696,128.272L122.923,151.71L120.915,151.71L127.742,127.796C127.933,127.122 128.258,126.577 128.717,126.16C129.176,125.744 129.807,125.536 130.61,125.536C131.374,125.536 131.996,125.744 132.474,126.16C132.952,126.577 133.267,127.122 133.42,127.796L138.984,150.282L138.124,150.282L144.893,128.272C145.428,126.448 146.422,125.536 147.875,125.536C148.946,125.536 149.673,125.922 150.055,126.695C150.438,127.469 150.418,128.47 149.998,129.7L141.508,156.112C141.355,156.667 141.03,157.133 140.533,157.509C140.036,157.886 139.462,158.075 138.812,158.075C138.2,158.075 137.627,157.886 137.091,157.509C136.556,157.133 136.212,156.667 136.059,156.112L130.151,133.447L130.724,133.447L124.529,156.112C124.376,156.667 124.042,157.133 123.525,157.509C123.009,157.886 122.426,158.075 121.776,158.075Z" style="fill:rgb(4,46,62);fill-rule:nonzero;"/>
                <path d="M157.684,158.075C156.843,158.075 156.145,157.787 155.591,157.212C155.036,156.637 154.759,155.913 154.759,155.041L154.759,128.569C154.759,127.657 155.036,126.924 155.591,126.368C156.145,125.813 156.843,125.536 157.684,125.536C158.564,125.536 159.271,125.813 159.807,126.368C160.342,126.924 160.61,127.657 160.61,128.569L160.61,155.041C160.61,155.913 160.342,156.637 159.807,157.212C159.271,157.787 158.564,158.075 157.684,158.075Z" style="fill:rgb(4,46,62);fill-rule:nonzero;"/>
                <path d="M170.763,137.73C170.763,135.351 171.327,133.219 172.455,131.335C173.583,129.452 175.103,127.955 177.015,126.844C178.927,125.734 181.03,125.179 183.325,125.179C185.619,125.179 187.331,125.565 188.459,126.339C189.587,127.112 190.017,128.034 189.749,129.105C189.635,129.66 189.415,130.086 189.09,130.384C188.765,130.681 188.392,130.869 187.971,130.949C187.551,131.028 187.092,131.008 186.594,130.889C184.147,130.374 181.948,130.334 179.998,130.77C178.048,131.207 176.508,132.02 175.38,133.209C174.252,134.399 173.688,135.906 173.688,137.73L170.763,137.73ZM170.82,158.075C169.902,158.075 169.195,157.827 168.698,157.331C168.201,156.835 167.952,156.092 167.952,155.1L167.952,128.51C167.952,127.558 168.201,126.824 168.698,126.309C169.195,125.793 169.902,125.536 170.82,125.536C171.776,125.536 172.493,125.783 172.971,126.279C173.449,126.775 173.688,127.518 173.688,128.51L173.688,155.1C173.688,156.052 173.449,156.786 172.971,157.301C172.493,157.817 171.776,158.075 170.82,158.075Z" style="fill:rgb(4,46,62);fill-rule:nonzero;"/>
                <path d="M203.775,158.313C200.601,158.313 197.781,157.609 195.315,156.201C192.848,154.793 190.917,152.85 189.521,150.371C188.125,147.892 187.427,145.047 187.427,141.835C187.427,138.583 188.087,135.718 189.406,133.239C190.726,130.76 192.552,128.817 194.884,127.409C197.217,126.001 199.894,125.298 202.915,125.298C205.898,125.298 208.46,125.982 210.601,127.35C212.743,128.718 214.378,130.602 215.506,133.001C216.634,135.4 217.198,138.166 217.198,141.299C217.198,142.053 216.949,142.678 216.452,143.173C215.955,143.669 215.324,143.917 214.559,143.917L191.443,143.917L191.443,139.158L214.387,139.158L212.035,140.824C211.997,138.841 211.615,137.066 210.888,135.499C210.162,133.933 209.129,132.694 207.791,131.782C206.452,130.869 204.827,130.413 202.915,130.413C200.735,130.413 198.871,130.909 197.322,131.901C195.773,132.892 194.597,134.25 193.794,135.975C192.991,137.7 192.59,139.654 192.59,141.835C192.59,144.016 193.068,145.959 194.024,147.664C194.98,149.37 196.299,150.718 197.982,151.71C199.664,152.701 201.596,153.197 203.775,153.197C204.961,153.197 206.175,152.969 207.418,152.513C208.661,152.057 209.664,151.531 210.429,150.936C211.003,150.5 211.624,150.272 212.294,150.252C212.963,150.232 213.546,150.44 214.043,150.877C214.693,151.472 215.037,152.126 215.076,152.84C215.114,153.554 214.808,154.168 214.158,154.684C212.858,155.755 211.242,156.627 209.311,157.301C207.38,157.975 205.534,158.313 203.775,158.313Z" style="fill:rgb(4,46,62);fill-rule:nonzero;"/>
                <path d="M234.479,158.313C231.496,158.313 228.809,157.589 226.419,156.141C224.029,154.694 222.136,152.721 220.741,150.222C219.345,147.724 218.647,144.908 218.647,141.775C218.647,138.642 219.287,135.837 220.568,133.358C221.85,130.879 223.599,128.916 225.817,127.469C228.035,126.021 230.54,125.298 233.331,125.298C235.588,125.298 237.672,125.783 239.584,126.755C241.496,127.727 243.102,129.045 244.402,130.711L244.402,114.649C244.402,113.737 244.679,113.004 245.234,112.448C245.788,111.893 246.486,111.616 247.328,111.616C248.207,111.616 248.915,111.893 249.45,112.448C249.985,113.004 250.253,113.737 250.253,114.649L250.253,141.775C250.253,144.908 249.555,147.724 248.159,150.222C246.764,152.721 244.88,154.694 242.509,156.141C240.138,157.589 237.461,158.313 234.479,158.313ZM234.479,152.959C236.429,152.959 238.169,152.473 239.699,151.501C241.228,150.53 242.433,149.191 243.312,147.486C244.192,145.781 244.632,143.877 244.632,141.775C244.632,139.634 244.192,137.73 243.312,136.065C242.433,134.399 241.228,133.08 239.699,132.109C238.169,131.137 236.429,130.651 234.479,130.651C232.567,130.651 230.836,131.137 229.287,132.109C227.739,133.08 226.515,134.399 225.616,136.065C224.718,137.73 224.268,139.634 224.268,141.775C224.268,143.877 224.718,145.781 225.616,147.486C226.515,149.191 227.739,150.53 229.287,151.501C230.836,152.473 232.567,152.959 234.479,152.959Z" style="fill:rgb(4,46,62);fill-rule:nonzero;"/>
                <path d="M261.381,158.075C260.655,158.075 260.005,157.797 259.431,157.242C258.857,156.687 258.571,155.953 258.571,155.041L258.571,125.714C258.571,122.859 259.115,120.38 260.205,118.278C261.295,116.176 262.815,114.54 264.766,113.371C266.716,112.201 268.972,111.616 271.534,111.616C272.376,111.616 273.073,111.873 273.628,112.389C274.182,112.905 274.46,113.559 274.46,114.352C274.46,115.106 274.182,115.75 273.628,116.285C273.073,116.821 272.376,117.088 271.534,117.088C270.119,117.088 268.876,117.426 267.806,118.1C266.735,118.774 265.903,119.706 265.31,120.896C264.718,122.085 264.421,123.493 264.421,125.119L264.421,155.041C264.421,155.953 264.154,156.687 263.618,157.242C263.083,157.797 262.337,158.075 261.381,158.075ZM256.104,131.841C255.301,131.841 254.651,131.603 254.154,131.127C253.657,130.651 253.408,130.056 253.408,129.343C253.408,128.549 253.657,127.915 254.154,127.439C254.651,126.963 255.301,126.725 256.104,126.725L270.272,126.725C271.075,126.725 271.725,126.963 272.223,127.439C272.72,127.915 272.968,128.549 272.968,129.343C272.968,130.056 272.72,130.651 272.223,131.127C271.725,131.603 271.075,131.841 270.272,131.841L256.104,131.841Z" style="fill:rgb(4,46,62);fill-rule:nonzero;"/>
                <path d="M278.991,137.73C278.991,135.351 279.555,133.219 280.683,131.335C281.812,129.452 283.332,127.955 285.244,126.844C287.156,125.734 289.259,125.179 291.553,125.179C293.848,125.179 295.559,125.565 296.687,126.339C297.815,127.112 298.246,128.034 297.978,129.105C297.863,129.66 297.643,130.086 297.318,130.384C296.993,130.681 296.62,130.869 296.2,130.949C295.779,131.028 295.32,131.008 294.823,130.889C292.376,130.374 290.177,130.334 288.226,130.77C286.276,131.207 284.737,132.02 283.609,133.209C282.481,134.399 281.917,135.906 281.917,137.73L278.991,137.73ZM279.049,158.075C278.131,158.075 277.423,157.827 276.926,157.331C276.429,156.835 276.181,156.092 276.181,155.1L276.181,128.51C276.181,127.558 276.429,126.824 276.926,126.309C277.423,125.793 278.131,125.536 279.049,125.536C280.005,125.536 280.722,125.783 281.2,126.279C281.678,126.775 281.917,127.518 281.917,128.51L281.917,155.1C281.917,156.052 281.678,156.786 281.2,157.301C280.722,157.817 280.005,158.075 279.049,158.075Z" style="fill:rgb(4,46,62);fill-rule:nonzero;"/>
                <path d="M310.34,158.313C307.549,158.313 305.047,157.592 302.835,156.152C300.623,154.712 298.873,152.749 297.586,150.263C296.299,147.777 295.656,144.973 295.656,141.852C295.656,138.69 296.354,135.864 297.75,133.375C299.145,130.885 301.036,128.916 303.422,127.469C305.807,126.021 308.496,125.298 311.488,125.298C314.479,125.298 317.158,126.021 319.525,127.469C321.891,128.916 323.773,130.889 325.168,133.388C326.564,135.886 327.262,138.702 327.262,141.835L325.025,141.835C325.025,144.949 324.382,147.749 323.096,150.236C321.81,152.723 320.063,154.691 317.855,156.139C315.648,157.588 313.143,158.313 310.34,158.313ZM311.488,152.959C313.438,152.959 315.178,152.473 316.708,151.501C318.237,150.53 319.442,149.199 320.321,147.509C321.201,145.819 321.641,143.924 321.641,141.825C321.641,139.69 321.201,137.78 320.321,136.094C319.442,134.409 318.238,133.08 316.709,132.109C315.18,131.137 313.441,130.651 311.492,130.651C309.577,130.651 307.845,131.137 306.296,132.109C304.748,133.08 303.524,134.406 302.625,136.086C301.727,137.767 301.277,139.679 301.277,141.824C301.277,143.933 301.727,145.83 302.625,147.516C303.524,149.201 304.747,150.53 306.293,151.501C307.84,152.473 309.571,152.959 311.488,152.959ZM324.346,158.134C323.498,158.134 322.797,157.847 322.243,157.272C321.688,156.696 321.411,155.973 321.411,155.1L321.411,145.999L322.501,139.693L327.262,141.835L327.262,155.1C327.262,155.973 326.988,156.696 326.44,157.272C325.891,157.847 325.193,158.134 324.346,158.134Z" style="fill:rgb(4,46,62);fill-rule:nonzero;"/>
                <path d="M374.471,158.134C373.629,158.134 372.931,157.847 372.377,157.272C371.822,156.696 371.545,155.973 371.545,155.1L371.545,138.087C371.545,135.589 370.952,133.735 369.767,132.525C368.582,131.316 367.033,130.711 365.121,130.711C363.132,130.711 361.497,131.425 360.216,132.852C358.935,134.28 358.295,136.104 358.295,138.325L353.534,138.325C353.534,135.747 354.069,133.477 355.14,131.514C356.211,129.551 357.711,128.014 359.643,126.904C361.574,125.793 363.782,125.238 366.268,125.238C368.448,125.238 370.379,125.734 372.061,126.725C373.744,127.717 375.054,129.174 375.991,131.097C376.928,133.021 377.396,135.351 377.396,138.087L377.396,155.1C377.396,155.973 377.128,156.696 376.593,157.272C376.058,157.847 375.35,158.134 374.471,158.134ZM336.21,158.134C335.369,158.134 334.671,157.847 334.117,157.272C333.562,156.696 333.285,155.973 333.285,155.1L333.285,128.629C333.285,127.717 333.562,126.983 334.117,126.428C334.671,125.873 335.369,125.595 336.21,125.595C337.09,125.595 337.797,125.873 338.333,126.428C338.868,126.983 339.136,127.717 339.136,128.629L339.136,155.1C339.136,155.973 338.868,156.696 338.333,157.272C337.797,157.847 337.09,158.134 336.21,158.134ZM355.369,158.134C354.528,158.134 353.83,157.847 353.276,157.272C352.721,156.696 352.444,155.973 352.444,155.1L352.444,138.087C352.444,135.589 351.851,133.735 350.666,132.525C349.48,131.316 347.931,130.711 346.019,130.711C344.031,130.711 342.386,131.425 341.086,132.852C339.786,134.28 339.136,136.104 339.136,138.325L335.522,138.325C335.522,135.747 336.019,133.477 337.014,131.514C338.008,129.551 339.384,128.014 341.144,126.904C342.903,125.793 344.91,125.238 347.167,125.238C349.346,125.238 351.277,125.734 352.96,126.725C354.643,127.717 355.952,129.174 356.889,131.097C357.826,133.021 358.295,135.351 358.295,138.087L358.295,155.1C358.295,155.973 358.027,156.696 357.492,157.272C356.956,157.847 356.249,158.134 355.369,158.134Z" style="fill:rgb(4,46,62);fill-rule:nonzero;"/>
                <path d="M399.538,158.313C396.364,158.313 393.543,157.609 391.077,156.201C388.61,154.793 386.679,152.85 385.283,150.371C383.887,147.892 383.19,145.047 383.19,141.835C383.19,138.583 383.849,135.718 385.169,133.239C386.488,130.76 388.314,128.817 390.647,127.409C392.979,126.001 395.656,125.298 398.677,125.298C401.66,125.298 404.222,125.982 406.364,127.35C408.505,128.718 410.14,130.602 411.268,133.001C412.396,135.4 412.96,138.166 412.96,141.299C412.96,142.053 412.712,142.678 412.215,143.173C411.717,143.669 411.086,143.917 410.322,143.917L387.205,143.917L387.205,139.158L410.15,139.158L407.798,140.824C407.759,138.841 407.377,137.066 406.65,135.499C405.924,133.933 404.891,132.694 403.553,131.782C402.215,130.869 400.589,130.413 398.677,130.413C396.497,130.413 394.633,130.909 393.084,131.901C391.536,132.892 390.36,134.25 389.557,135.975C388.754,137.7 388.352,139.654 388.352,141.835C388.352,144.016 388.83,145.959 389.786,147.664C390.742,149.37 392.062,150.718 393.744,151.71C395.427,152.701 397.358,153.197 399.538,153.197C400.723,153.197 401.937,152.969 403.18,152.513C404.423,152.057 405.427,151.531 406.192,150.936C406.765,150.5 407.387,150.272 408.056,150.252C408.725,150.232 409.308,150.44 409.805,150.877C410.455,151.472 410.8,152.126 410.838,152.84C410.876,153.554 410.57,154.168 409.92,154.684C408.62,155.755 407.004,156.627 405.073,157.301C403.142,157.975 401.297,158.313 399.538,158.313Z" style="fill:rgb(4,46,62);fill-rule:nonzero;"/>
            </g>
            <g transform="matrix(1.07093,0,0,1,0,-0.0306118)">
                <g>
                    <g>
                        <clipPath id="_clip2">
                            <rect x="0.604" y="0.409" width="95.591" height="95.591"/>
                        </clipPath>
                        <g clip-path="url(#_clip2)">
                            <path d="M18.633,18.416C23.741,13.309 29.299,8.242 34.478,4.535C39.532,0.918 46.52,-0.325 52.291,0.822C55.821,1.354 59.307,2.648 62.172,4.703C67.33,8.4 72.861,13.44 77.954,18.527C77.976,18.548 77.995,18.568 78.015,18.589C78.036,18.608 78.056,18.628 78.075,18.649C83.163,23.741 88.204,29.274 91.899,34.43C93.955,37.297 95.25,40.782 95.782,44.313C96.927,50.084 95.684,57.071 92.068,62.126C88.362,67.305 83.295,72.863 78.187,77.97C78.184,77.974 78.178,77.977 78.175,77.981C78.171,77.985 78.168,77.988 78.164,77.993C73.056,83.101 67.499,88.168 62.32,91.874C57.265,95.49 50.278,96.733 44.507,95.588C40.976,95.056 37.491,93.76 34.625,91.705C29.468,88.01 23.937,82.97 18.843,77.881C18.822,77.862 18.802,77.84 18.783,77.821C18.761,77.801 18.742,77.78 18.721,77.76L18.722,77.76C13.634,72.667 8.594,67.136 4.898,61.978C2.842,59.111 1.548,55.627 1.016,52.095C-0.131,46.326 1.114,39.337 4.729,34.284C8.436,29.103 13.503,23.546 18.61,18.44L18.633,18.416" style="fill:rgb(230,239,238);"/>
                        </g>
                    </g>
                </g>
            </g>
            <g transform="matrix(1.07093,0,0,1,0,-0.0306118)">
                <path d="M55.619,13.761C50.763,14.23 45.136,15.457 39.794,16.882C39.788,16.882 39.785,16.884 39.781,16.885C39.778,16.885 39.772,16.887 39.769,16.887C34.426,18.312 28.936,20.049 24.495,22.057C10.952,28.106 13.848,38.768 14.013,40.441C14.493,45.264 15.724,50.852 17.152,56.166L17.15,56.166C17.157,56.188 17.163,56.209 17.168,56.23C17.173,56.252 17.179,56.273 17.186,56.294C18.619,61.607 20.362,67.058 22.372,71.474C23.067,73.007 25.918,83.679 40.686,82.18C45.542,81.709 51.169,80.483 56.511,79.059C56.517,79.057 56.52,79.057 56.524,79.055C56.527,79.054 56.533,79.054 56.536,79.052C61.879,77.629 67.369,75.891 71.81,73.882C85.353,67.835 82.457,57.173 82.292,55.5C81.81,50.675 80.581,45.088 79.153,39.772C79.148,39.751 79.142,39.732 79.137,39.71C79.132,39.689 79.125,39.668 79.119,39.646C77.686,34.334 75.943,28.883 73.933,24.465C73.238,22.934 70.387,12.26 55.619,13.761" style="fill:rgb(4,46,62);"/>
            </g>
            <g transform="matrix(1.07093,0,0,1,0,-0.0306118)">
                <path d="M57.969,27.901C54.889,27.387 51.206,27.211 47.666,27.206L47.65,27.206C44.111,27.199 40.428,27.361 37.35,27.862C27.975,29.345 28.002,36.39 27.829,37.448C27.33,40.498 27.166,44.142 27.17,47.651L27.17,47.735C27.178,51.244 27.356,54.888 27.868,57.94C28.046,58.998 28.045,66.042 37.424,67.561C40.506,68.073 44.188,68.249 47.729,68.256L47.745,68.256C51.284,68.264 54.965,68.102 58.044,67.598C67.42,66.115 67.391,59.071 67.566,58.014C68.066,54.964 68.229,51.32 68.224,47.811L68.224,47.728C68.215,44.219 68.039,40.575 67.527,37.523C67.349,36.465 67.351,29.42 57.969,27.901" style="fill:rgb(63,243,144);"/>
            </g>
            <g transform="matrix(1.07093,0,0,1,0,-0.0306118)">
                <path d="M51.461,36.274C51.319,35.23 51.253,34.062 51.235,32.865C52.98,32.936 54.755,33.091 56.257,33.388C61.299,34.364 61.182,38.197 61.26,38.775C61.401,39.819 61.468,40.987 61.484,42.184C59.74,42.113 57.966,41.96 56.464,41.661C51.422,40.685 51.539,36.852 51.461,36.274" style="fill:rgb(4,46,62);"/>
            </g>
            <g transform="matrix(-1.07093,0,0,1,235.649,-8.29897)">
                <path d="M51.461,36.274C51.319,35.23 51.253,34.062 51.235,32.865C52.98,32.936 54.755,33.091 56.257,33.388C61.299,34.364 61.182,38.197 61.26,38.775C61.401,39.819 61.468,40.987 61.484,42.184C59.74,42.113 57.966,41.96 56.464,41.661C51.422,40.685 51.539,36.852 51.461,36.274" style="fill:rgb(63,243,144);"/>
            </g>
        </g>
    </g>
</svg>
