<?xml version="1.0" encoding="UTF-8" standalone="no"?><!DOCTYPE svg PUBLIC "-//W3C//DTD SVG 1.1//EN" "http://www.w3.org/Graphics/SVG/1.1/DTD/svg11.dtd"><svg width="100%" height="100%" viewBox="0 0 240 241" version="1.1" xmlns="http://www.w3.org/2000/svg" xmlns:xlink="http://www.w3.org/1999/xlink" xml:space="preserve" style="fill-rule:evenodd;clip-rule:evenodd;stroke-linejoin:round;stroke-miterlimit:1.41421;"><clipPath id="_clip1"><rect x="0.002" y="0.345" width="240" height="240"/></clipPath><g clip-path="url(#_clip1)"><path d="M45.269,45.556c12.824,-12.824 26.778,-25.545 39.78,-34.851c12.69,-9.082 30.234,-12.203 44.724,-9.323c8.863,1.335 17.615,4.586 24.808,9.743c12.95,9.283 26.836,21.937 39.625,34.708c0.053,0.053 0.102,0.103 0.151,0.156c0.054,0.049 0.103,0.098 0.152,0.152c12.775,12.784 25.43,26.675 34.708,39.62c5.162,7.198 8.413,15.949 9.748,24.813c2.875,14.489 -0.246,32.033 -9.323,44.723c-9.306,13.003 -22.027,26.957 -34.851,39.781c-0.009,0.009 -0.023,0.018 -0.032,0.027c-0.009,0.008 -0.017,0.017 -0.026,0.031c-12.824,12.824 -26.778,25.545 -39.781,34.851c-12.69,9.077 -30.234,12.199 -44.723,9.323c-8.864,-1.335 -17.616,-4.59 -24.809,-9.748c-12.949,-9.278 -26.836,-21.933 -39.624,-34.708c-0.054,-0.049 -0.103,-0.102 -0.152,-0.151c-0.054,-0.049 -0.103,-0.103 -0.156,-0.152l0.004,0c-12.775,-12.788 -25.429,-26.675 -34.708,-39.624c-5.162,-7.198 -8.412,-15.946 -9.747,-24.813c-2.88,-14.486 0.245,-32.034 9.323,-44.719c9.305,-13.008 22.027,-26.961 34.851,-39.781l0.058,-0.058" style="fill:#0093a7;"/></g></svg>