<?xml version="1.0" encoding="UTF-8" standalone="no"?>
<!DOCTYPE svg PUBLIC "-//W3C//DTD SVG 1.1//EN" "http://www.w3.org/Graphics/SVG/1.1/DTD/svg11.dtd">
<svg width="100%" height="100%" viewBox="0 0 96 96" version="1.1" xmlns="http://www.w3.org/2000/svg" xmlns:xlink="http://www.w3.org/1999/xlink" xml:space="preserve" xmlns:serif="http://www.serif.com/" style="fill-rule:evenodd;clip-rule:evenodd;stroke-linejoin:round;stroke-miterlimit:2;">
    <g id="Logo" transform="matrix(0.933769,0,0,1,0,0)">
        <rect x="0" y="0" width="446.396" height="95.591" style="fill:none;"/>
        <clipPath id="_clip1">
            <rect x="0" y="0" width="446.396" height="95.591"/>
        </clipPath>
        <g clip-path="url(#_clip1)">
            <g transform="matrix(1.07093,0,0,1,0,-0.0306118)">
                <g>
                    <g>
                        <clipPath id="_clip2">
                            <rect x="0.604" y="0.409" width="95.591" height="95.591"/>
                        </clipPath>
                        <g clip-path="url(#_clip2)">
                            <path d="M18.633,18.416C23.741,13.309 29.299,8.242 34.478,4.535C39.532,0.918 46.52,-0.325 52.291,0.822C55.821,1.354 59.307,2.648 62.172,4.703C67.33,8.4 72.861,13.44 77.954,18.527C77.976,18.548 77.995,18.568 78.015,18.589C78.036,18.608 78.056,18.628 78.075,18.649C83.163,23.741 88.204,29.274 91.899,34.43C93.955,37.297 95.25,40.782 95.782,44.313C96.927,50.084 95.684,57.071 92.068,62.126C88.362,67.305 83.295,72.863 78.187,77.97C78.184,77.974 78.178,77.977 78.175,77.981C78.171,77.985 78.168,77.988 78.164,77.993C73.056,83.101 67.499,88.168 62.32,91.874C57.265,95.49 50.278,96.733 44.507,95.588C40.976,95.056 37.491,93.76 34.625,91.705C29.468,88.01 23.937,82.97 18.843,77.881C18.822,77.862 18.802,77.84 18.783,77.821C18.761,77.801 18.742,77.78 18.721,77.76L18.722,77.76C13.634,72.667 8.594,67.136 4.898,61.978C2.842,59.111 1.548,55.627 1.016,52.095C-0.131,46.326 1.114,39.337 4.729,34.284C8.436,29.103 13.503,23.546 18.61,18.44L18.633,18.416" style="fill:rgb(230,239,238);"/>
                        </g>
                    </g>
                </g>
            </g>
            <g transform="matrix(1.07093,0,0,1,0,-0.0306118)">
                <path d="M55.619,13.761C50.763,14.23 45.136,15.457 39.794,16.882C39.788,16.882 39.785,16.884 39.781,16.885C39.778,16.885 39.772,16.887 39.769,16.887C34.426,18.312 28.936,20.049 24.495,22.057C10.952,28.106 13.848,38.768 14.013,40.441C14.493,45.264 15.724,50.852 17.152,56.166L17.15,56.166C17.157,56.188 17.163,56.209 17.168,56.23C17.173,56.252 17.179,56.273 17.186,56.294C18.619,61.607 20.362,67.058 22.372,71.474C23.067,73.007 25.918,83.679 40.686,82.18C45.542,81.709 51.169,80.483 56.511,79.059C56.517,79.057 56.52,79.057 56.524,79.055C56.527,79.054 56.533,79.054 56.536,79.052C61.879,77.629 67.369,75.891 71.81,73.882C85.353,67.835 82.457,57.173 82.292,55.5C81.81,50.675 80.581,45.088 79.153,39.772C79.148,39.751 79.142,39.732 79.137,39.71C79.132,39.689 79.125,39.668 79.119,39.646C77.686,34.334 75.943,28.883 73.933,24.465C73.238,22.934 70.387,12.26 55.619,13.761" style="fill:#003e50;"/>
            </g>
            <g transform="matrix(1.07093,0,0,1,0,-0.0306118)">
                <path d="M57.969,27.901C54.889,27.387 51.206,27.211 47.666,27.206L47.65,27.206C44.111,27.199 40.428,27.361 37.35,27.862C27.975,29.345 28.002,36.39 27.829,37.448C27.33,40.498 27.166,44.142 27.17,47.651L27.17,47.735C27.178,51.244 27.356,54.888 27.868,57.94C28.046,58.998 28.045,66.042 37.424,67.561C40.506,68.073 44.188,68.249 47.729,68.256L47.745,68.256C51.284,68.264 54.965,68.102 58.044,67.598C67.42,66.115 67.391,59.071 67.566,58.014C68.066,54.964 68.229,51.32 68.224,47.811L68.224,47.728C68.215,44.219 68.039,40.575 67.527,37.523C67.349,36.465 67.351,29.42 57.969,27.901" style="fill:#4cf799;"/>
            </g>
            <g transform="matrix(1.07093,0,0,1,0,-0.0306118)">
                <path d="M51.461,36.274C51.319,35.23 51.253,34.062 51.235,32.865C52.98,32.936 54.755,33.091 56.257,33.388C61.299,34.364 61.182,38.197 61.26,38.775C61.401,39.819 61.468,40.987 61.484,42.184C59.74,42.113 57.966,41.96 56.464,41.661C51.422,40.685 51.539,36.852 51.461,36.274" style="fill:#003e50;"/>
            </g>
        </g>
    </g>
</svg>
