<?xml version="1.0" encoding="UTF-8" standalone="no"?><!DOCTYPE svg PUBLIC "-//W3C//DTD SVG 1.1//EN" "http://www.w3.org/Graphics/SVG/1.1/DTD/svg11.dtd"><svg width="100%" height="100%" viewBox="0 0 296 296" version="1.1" xmlns="http://www.w3.org/2000/svg" xmlns:xlink="http://www.w3.org/1999/xlink" xml:space="preserve" style="fill-rule:evenodd;clip-rule:evenodd;stroke-linejoin:round;stroke-miterlimit:1.41421;"><clipPath id="_clip1"><rect x="0.879" y="0.773" width="294.455" height="294.455"/></clipPath><g clip-path="url(#_clip1)"><path d="M56.417,56.242c15.733,-15.734 32.853,-31.341 48.806,-42.758c15.569,-11.143 37.094,-14.972 54.871,-11.439c10.874,1.638 21.612,5.626 30.438,11.954c15.887,11.389 32.924,26.915 48.614,42.583c0.066,0.066 0.126,0.126 0.187,0.192c0.065,0.06 0.126,0.12 0.186,0.186c15.673,15.684 31.199,32.727 42.583,48.609c6.333,8.831 10.321,19.569 11.959,30.443c3.528,17.777 -0.301,39.302 -11.439,54.871c-11.417,15.953 -27.024,33.073 -42.758,48.807c-0.011,0.011 -0.027,0.021 -0.038,0.032c-0.011,0.011 -0.022,0.022 -0.033,0.039c-15.734,15.734 -32.854,31.341 -48.807,42.758c-15.569,11.138 -37.094,14.967 -54.871,11.439c-10.874,-1.638 -21.612,-5.632 -30.437,-11.959c-15.887,-11.384 -32.925,-26.91 -48.615,-42.583c-0.066,-0.061 -0.126,-0.126 -0.186,-0.187c-0.066,-0.06 -0.126,-0.126 -0.192,-0.186l0.005,0c-15.673,-15.69 -31.199,-32.727 -42.583,-48.615c-6.333,-8.831 -10.321,-19.563 -11.959,-30.443c-3.533,-17.771 0.302,-39.301 11.439,-54.865c11.417,-15.959 27.025,-33.078 42.758,-48.807l0.072,-0.071" style="fill:#efefef;fill-opacity:0.4;"/></g></svg>