<?xml version="1.0" encoding="UTF-8" standalone="no"?><!DOCTYPE svg PUBLIC "-//W3C//DTD SVG 1.1//EN" "http://www.w3.org/Graphics/SVG/1.1/DTD/svg11.dtd"><svg width="100%" height="100%" viewBox="0 0 213 213" version="1.1" xmlns="http://www.w3.org/2000/svg" xmlns:xlink="http://www.w3.org/1999/xlink" xml:space="preserve" style="fill-rule:evenodd;clip-rule:evenodd;stroke-linejoin:round;stroke-miterlimit:1.41421;"><path d="M129.344,0.9c-14.956,1.447 -32.289,5.227 -48.746,9.615c-0.017,0 -0.028,0.005 -0.039,0.011c-0.011,0 -0.027,0.005 -0.038,0.005c-16.457,4.389 -33.368,9.741 -47.048,15.926c-41.717,18.632 -32.799,51.474 -32.289,56.629c1.479,14.858 5.27,32.071 9.669,48.44l-0.005,0c0.022,0.066 0.038,0.131 0.054,0.197c0.017,0.066 0.033,0.131 0.055,0.197c4.416,16.364 9.784,33.155 15.975,46.758c2.142,4.722 10.924,37.598 56.416,32.979c14.956,-1.451 32.289,-5.226 48.746,-9.614c0.016,-0.006 0.027,-0.006 0.038,-0.011c0.011,-0.006 0.028,-0.006 0.039,-0.011c16.457,-4.383 33.368,-9.735 47.048,-15.926c41.717,-18.626 32.798,-51.468 32.289,-56.624c-1.485,-14.862 -5.27,-32.07 -9.669,-48.444c-0.017,-0.066 -0.033,-0.126 -0.05,-0.192c-0.016,-0.066 -0.038,-0.132 -0.054,-0.197c-4.416,-16.364 -9.785,-33.155 -15.975,-46.763c-2.142,-4.717 -10.924,-37.598 -56.416,-32.975" style="fill:#003e50;"/></svg>