<?xml version="1.0" encoding="UTF-8" standalone="no"?><!DOCTYPE svg PUBLIC "-//W3C//DTD SVG 1.1//EN" "http://www.w3.org/Graphics/SVG/1.1/DTD/svg11.dtd"><svg width="100%" height="100%" viewBox="0 0 128 127" version="1.1" xmlns="http://www.w3.org/2000/svg" xmlns:xlink="http://www.w3.org/1999/xlink" xml:space="preserve" style="fill-rule:evenodd;clip-rule:evenodd;stroke-linejoin:round;stroke-miterlimit:1.41421;"><path d="M95.585,2.459c-9.489,-1.584 -20.834,-2.126 -31.736,-2.142l-0.028,0l-0.022,0c-10.902,-0.022 -22.247,0.476 -31.73,2.021c-28.876,4.569 -28.794,26.269 -29.326,29.528c-1.539,9.396 -2.043,20.621 -2.032,31.43l0,0.257c0.027,10.809 0.575,22.034 2.153,31.435c0.548,3.259 0.542,24.959 29.435,29.637c9.494,1.578 20.834,2.121 31.741,2.142l0.05,0c10.902,0.022 22.242,-0.476 31.725,-2.026c28.881,-4.569 28.794,-26.269 29.331,-29.523c1.539,-9.396 2.043,-20.621 2.027,-31.429l0,-0.258c-0.028,-10.809 -0.57,-22.034 -2.148,-31.435c-0.548,-3.259 -0.542,-24.959 -29.44,-29.637" style="fill:#fff;"/></svg>